<svg width="134" height="200" viewBox="0 0 134 200" fill="none" xmlns="http://www.w3.org/2000/svg">
<g clip-path="url(#clip0_20_2)">
<path d="M133.062 50.6612L66.531 0L0 50.0509L25.4324 131.027H47.8128L38.0468 141.404L66.531 200L95.0153 141.607L85.0458 131.027H107.63L133.062 50.6612Z" fill="black"/>
<path d="M62.4526 43.0001C60.1519 42.9921 57.932 44.2489 56.9685 46.6164V47.8484L55.5218 47.5305C53.7012 47.1274 52.2419 47.3843 51.2775 48.0192C50.313 48.6543 49.7294 49.6595 49.7076 51.2542C49.6911 52.4674 49.9531 53.266 50.3197 53.7975C50.6862 54.3291 51.1683 54.646 51.8338 54.8228C53.1646 55.1763 55.2254 54.7774 57.0597 53.71L57.8186 53.2688L58.4625 53.8611C59.5313 54.8459 60.3077 55.2689 61.077 55.4189C61.8467 55.569 62.7361 55.4594 64.0579 55.0533L65.3095 54.6678L65.5718 55.9513C65.9146 57.6246 67.4679 58.9279 69.2756 58.9279C70.959 58.9279 72.2857 57.7798 72.749 56.1979L73.0311 55.24L74.0208 55.3472C75.1469 55.4731 76.4892 54.8328 77.2 54.0319L77.9631 53.1735L78.8492 53.9088C81.2158 55.8783 83.3586 56.0656 84.8621 55.3672C86.3652 54.6685 87.4284 53.0016 87.3101 50.4353C87.1982 48.0411 85.9151 46.5633 84.0673 45.8811C82.2193 45.199 79.7741 45.4221 77.5458 46.9262L76.6002 47.5661L75.9206 46.6442C75.0256 45.4252 73.7473 44.6749 72.5226 44.4823C71.2983 44.2895 70.1717 44.6003 69.2959 45.5513L68.354 46.5724L67.4918 45.4839C66.1638 43.8097 64.2854 43.0065 62.4526 43.0001ZM38.6881 55.7844C35.2011 66.4262 33.673 77.289 34.0581 88.3679C39.0876 90.5591 44.4124 90.6703 49.7554 90.657C50.0547 89.2488 50.3347 87.7906 50.594 86.3052C46.5116 86.5186 42.4432 86.6257 38.6003 85.145C38.304 76.6399 39.4799 69.6784 42.161 61.3605C45.635 62.1871 49.1566 62.4555 52.7479 62.3101C52.739 60.8203 52.6986 59.4417 52.6169 58.2013C47.8903 57.9818 43.2581 57.1023 38.6881 55.7851V55.7844ZM57.5091 56.1621C56.6736 56.5805 55.8088 56.9022 54.9415 57.1039C55.3347 61.3585 55.1891 67.073 54.6635 73.2664C54.056 80.4234 52.9002 88.0815 51.3014 94.4677H85.6172C84.3542 87.7831 83.2249 80.2744 82.6168 73.2661C82.1247 67.5921 81.9513 62.3149 82.3587 58.0418C80.9882 57.8788 79.555 57.3243 78.17 56.3606C77.2165 57.1221 76.0139 57.6508 74.7046 57.7277C73.7559 59.7938 71.7263 61.3043 69.276 61.3043C66.7779 61.3043 64.5911 59.7961 63.6368 57.6243C62.5864 57.864 61.603 57.9431 60.6204 57.7515C59.5305 57.5391 58.5262 56.9867 57.5089 56.1619L57.5091 56.1621ZM47.5421 96.8443L45.1737 103H90.7874L88.0253 96.8443H47.5423H47.5421Z" fill="white"/>
</g>
<defs>
<clipPath id="clip0_20_2">
<rect width="133.062" height="200" fill="white"/>
</clipPath>
</defs>
</svg>
