<svg width="134" height="200" viewBox="0 0 134 200" fill="none" xmlns="http://www.w3.org/2000/svg">
<g clip-path="url(#clip0_56_19)">
<path d="M133.062 50.6612L66.531 0L0 50.0509L25.4324 131.027H47.8128L38.0468 141.404L66.531 200L95.0153 141.607L85.0458 131.027H107.63L133.062 50.6612Z" fill="black"/>
<g clip-path="url(#clip1_56_19)">
<path d="M93.25 43H40.75C38.6789 43 37 44.6789 37 46.75V99.25C37 101.321 38.6789 103 40.75 103H93.25C95.3211 103 97 101.321 97 99.25V46.75C97 44.6789 95.3211 43 93.25 43Z" fill="black"/>
<path d="M57.4712 46.2886V54.6821H48.0083V64.2181H39.6147V82.9792H48.0083V92.4385H57.4712V100.836H76.2285V92.4385H85.7646V82.9792H94.1618V64.2183H85.7647V54.6821H76.2285V46.2887L57.4712 46.2886ZM59.6611 48.4785H74.0386V66.4081H91.9718V80.7894H74.0385V98.6456H59.6611V80.7894H41.8046V66.4081H59.6611V48.4785Z" fill="white"/>
</g>
</g>
<defs>
<clipPath id="clip0_56_19">
<rect width="133.062" height="200" fill="white"/>
</clipPath>
<clipPath id="clip1_56_19">
<rect width="60" height="60" fill="white" transform="translate(37 43)"/>
</clipPath>
</defs>
</svg>
