<svg width="134" height="200" viewBox="0 0 134 200" fill="none" xmlns="http://www.w3.org/2000/svg">
<g clip-path="url(#clip0_57_29)">
<path d="M133.062 50.6612L66.531 0L0 50.0509L25.4324 131.027H47.8128L38.0468 141.404L66.531 200L95.0153 141.607L85.0458 131.027H107.63L133.062 50.6612Z" fill="black"/>
<g clip-path="url(#clip1_57_29)">
<path d="M93.25 43H40.75C38.6789 43 37 44.6789 37 46.75V99.25C37 101.321 38.6789 103 40.75 103H93.25C95.3211 103 97 101.321 97 99.25V46.75C97 44.6789 95.3211 43 93.25 43Z" fill="black"/>
<path d="M67 48.7422C64.7266 48.7422 62.4414 48.9789 60.8242 49.4102C60.0156 49.6246 59.3828 49.8977 59.0312 50.1391C58.8789 50.2387 58.8203 50.2973 58.7734 50.3523C62.1367 55.6445 63.8945 62.957 64.2344 68.5469C64.5156 68.4766 64.7969 68.418 65.0898 68.3594C65.1367 67.293 65.4531 65.6641 65.7695 65.6289H65.8281C66.3672 65.6758 66.6133 67.1758 66.707 68.207H67C67.9727 68.207 68.8984 68.3242 69.7656 68.5469C70.1055 62.957 71.8633 55.6445 75.2266 50.3523C75.1797 50.2973 75.1211 50.2387 74.9688 50.1391C74.6172 49.8977 73.9844 49.6246 73.1758 49.4102C72.7422 49.2953 72.2617 49.1945 71.7461 49.1078C71.2773 49.6996 70.9141 50.1707 70.3047 50.1578C69.8008 50.0594 69.2969 49.4852 69.0039 48.8055C68.3477 48.7656 67.6797 48.7422 67 48.7422ZM64.4922 50.1402C64.7266 50.1449 65.0078 50.1953 65.3359 50.309C65.2539 52.1676 65.2539 55.7734 64.832 55.9375C64.3867 55.8438 64.0234 52.3738 63.5898 50.5891C63.707 50.343 63.9883 50.1309 64.4922 50.1402ZM69.4141 56.2891C69.7305 56.3008 70.0469 56.418 70.3633 56.6172C69.5195 58.9961 68.7578 64.9727 68.4062 64.75C67.5977 64.2461 68.4766 58.8906 68.8516 56.4297C69.0391 56.3359 69.2266 56.2891 69.4141 56.2891ZM47.2422 62.8047L42.0391 88.8203H91.9609L86.7578 62.8047H72.707C72.543 63.5664 72.4023 64.3164 72.2852 65.043C74.5117 65.582 76.5273 66.4492 78.2031 67.5859C81.1211 69.5664 83.0547 72.4258 83.0547 75.6484C83.0547 78.8711 81.1211 81.7305 78.2031 83.7109C75.2734 85.6914 71.3359 86.8633 67 86.8633C62.6641 86.8633 58.7266 85.6914 55.7969 83.7109C52.8789 81.7305 50.9453 78.8711 50.9453 75.6484C50.9453 72.4258 52.8789 69.5664 55.7969 67.5859C57.4727 66.4492 59.4883 65.582 61.7148 65.043C61.5977 64.3164 61.457 63.5664 61.293 62.8047H47.2422ZM62.0078 67.1523C60.0859 67.6328 58.375 68.3945 56.9805 69.332C54.4727 71.0312 53.0547 73.2578 53.0547 75.6484C53.0547 78.0391 54.4727 80.2656 56.9805 81.9648C57.4375 82.2695 57.9297 82.5625 58.4453 82.8203V74.875H58.457C58.4453 74.7812 58.4453 74.6992 58.4453 74.6055C58.4453 72.7305 59.5234 71.0781 61.082 69.9648C61.4219 69.7305 61.7852 69.5078 62.1719 69.3086C62.1367 68.6289 62.0781 67.9023 62.0078 67.1523ZM71.9922 67.1523C71.9219 67.9023 71.8633 68.6289 71.8281 69.3086C72.2148 69.5078 72.5781 69.7305 72.918 69.9648C74.4766 71.0781 75.5547 72.7305 75.5547 74.6055C75.5547 74.6992 75.5547 74.7812 75.543 74.875H75.5547V82.8203C76.0703 82.5625 76.5625 82.2695 77.0195 81.9648C79.5273 80.2656 80.9453 78.0391 80.9453 75.6484C80.9453 73.2578 79.5273 71.0312 77.0195 69.332C75.625 68.3945 73.9141 67.6328 71.9922 67.1523ZM67 70.3164C65.1367 70.3164 63.4609 70.8672 62.3125 71.6875C61.1641 72.5078 60.5547 73.5273 60.5547 74.6055C60.5547 75.6836 61.1641 76.7031 62.3125 77.5234C63.4609 78.3438 65.1367 78.8945 67 78.8945C68.8633 78.8945 70.5391 78.3438 71.6875 77.5234C72.8359 76.7031 73.4453 75.6836 73.4453 74.6055C73.4453 73.5273 72.8359 72.5078 71.6875 71.6875C70.5391 70.8672 68.8633 70.3164 67 70.3164ZM60.5547 78.8359V83.7109C62.4766 84.3789 64.668 84.7539 67 84.7539C69.332 84.7539 71.5234 84.3789 73.4453 83.7109V78.8359C73.2813 78.9766 73.1055 79.1172 72.918 79.2461C71.3477 80.3594 69.2734 81.0039 67 81.0039C64.7266 81.0039 62.6523 80.3594 61.082 79.2461C60.8945 79.1172 60.7187 78.9766 60.5547 78.8359ZM41.8047 90.9297V100.07H92.1953V90.9297H41.8047Z" fill="white"/>
</g>
</g>
<defs>
<clipPath id="clip0_57_29">
<rect width="133.062" height="200" fill="white"/>
</clipPath>
<clipPath id="clip1_57_29">
<rect width="60" height="60" fill="white" transform="translate(37 43)"/>
</clipPath>
</defs>
</svg>
