<svg width="134" height="200" viewBox="0 0 134 200" fill="none" xmlns="http://www.w3.org/2000/svg">
<g clip-path="url(#clip0_60_53)">
<path d="M133.062 50.6612L66.531 0L0 50.0509L25.4324 131.027H47.8128L38.0468 141.404L66.531 200L95.0153 141.607L85.0458 131.027H107.63L133.062 50.6612Z" fill="black"/>
<g clip-path="url(#clip1_60_53)">
<path d="M93.25 43H40.75C38.6789 43 37 44.6789 37 46.75V99.25C37 101.321 38.6789 103 40.75 103H93.25C95.3211 103 97 101.321 97 99.25V46.75C97 44.6789 95.3211 43 93.25 43Z" fill="black"/>
<path d="M61.375 49.6378L59.5 57.1378L47.9491 58.7881L67 63.5506L86.0509 58.7881L74.5 57.1378L72.625 49.6378L69.4295 51.7683L68.023 57.3936H65.977L64.5705 51.7682L61.375 49.6378ZM45.1304 60.2573L38.875 66.5129L44.5 74.0129L47.5199 70.993L50.6393 61.6348L45.1304 60.2573ZM88.8696 60.2573L83.3607 61.6347L86.4802 70.9929L89.5 74.0128L95.125 66.5128L88.8696 60.2573ZM52.6919 62.1478L50.3337 69.2223L51.9521 75.6965L65.9453 83.4704V65.4613L52.6919 62.1478ZM81.3081 62.1478L68.0547 65.4613V83.4704L82.0478 75.6965L83.6662 69.2223L81.3081 62.1478ZM53.875 79.1775V85.7768L65.9453 89.3659V85.8832L53.875 79.1775ZM80.125 79.1775L68.0547 85.8833V89.3659L80.125 85.7768V79.1775ZM53.875 88.0298V94.6378L65.9453 96.3621V91.6187L53.875 88.0298ZM80.125 88.0298L68.0547 91.6187V96.3622L80.125 94.6379V88.0298Z" fill="white"/>
</g>
</g>
<defs>
<clipPath id="clip0_60_53">
<rect width="133.062" height="200" fill="white"/>
</clipPath>
<clipPath id="clip1_60_53">
<rect width="60" height="60" fill="white" transform="translate(37 43)"/>
</clipPath>
</defs>
</svg>
