<svg width="134" height="200" viewBox="0 0 134 200" fill="none" xmlns="http://www.w3.org/2000/svg">
<g clip-path="url(#clip0_20_2)">
<path d="M133.062 50.6612L66.531 0L0 50.0509L25.4324 131.027H47.8128L38.0468 141.404L66.531 200L95.0153 141.607L85.0458 131.027H107.63L133.062 50.6612Z" fill="black"/>
<g clip-path="url(#clip1_20_2)">
<path d="M93.25 43H40.75C38.6789 43 37 44.6789 37 46.75V99.25C37 101.321 38.6789 103 40.75 103H93.25C95.3211 103 97 101.321 97 99.25V46.75C97 44.6789 95.3211 43 93.25 43Z" fill="black"/>
<path d="M85.4424 51.1921L76.4848 65.4379L75.518 61.6071L71.9769 72.0332L79.3192 68.5908L79.345 72.0406L94.2314 66.0713L85.933 65.8405L91.5324 57.7913L82.9226 62.3909L85.4422 51.192L85.4424 51.1921ZM61.6352 54.9642L57.8852 56.6524L59.8626 63.1746L39.0251 72.5531L40.4975 75.8198L61.3347 66.4375L64.8979 72.2348L70.6768 69.6344L68.1755 61.3911L61.6352 54.9642ZM60.1555 74.2633V76.6475H49.7368C51.6111 81.1952 55.7397 84.3151 60.1555 85.3522V89.2158H67.0182C65.5981 92.7933 63.0918 95.7413 60.1662 98.3089H57.1821V100.499H90.5032V98.309H87.2915C83.9242 95.7432 81.4257 92.7991 80.0698 89.2158H87.5298V85.7954C89.844 84.9757 92.1587 83.509 94.4731 81.4961C92.1514 79.4426 89.8758 78.3028 87.5298 77.7534V74.2635H60.1556L60.1555 74.2633Z" fill="white"/>
</g>
</g>
<defs>
<clipPath id="clip0_20_2">
<rect width="133.062" height="200" fill="white"/>
</clipPath>
<clipPath id="clip1_20_2">
<rect width="60" height="60" fill="white" transform="translate(37 43)"/>
</clipPath>
</defs>
</svg>
