<svg width="134" height="200" viewBox="0 0 134 200" fill="none" xmlns="http://www.w3.org/2000/svg">
<g clip-path="url(#clip0_44_9)">
<path d="M133.062 50.6612L66.531 0L0 50.0509L25.4324 131.027H47.8128L38.0468 141.404L66.531 200L95.0153 141.607L85.0458 131.027H107.63L133.062 50.6612Z" fill="black"/>
<path d="M52.3763 43.0033C51.7124 43.0241 51.0486 43.2121 50.4803 43.534C48.7492 44.5151 47.5727 46.3418 46.1361 49.0324C44.6995 51.7226 43.094 55.3419 41.1041 59.9905C37.1235 69.2871 31.621 82.6949 23.1685 100.628C23.0722 100.824 23.0159 101.037 23.0029 101.255C22.9899 101.473 23.0204 101.692 23.0927 101.898C23.165 102.104 23.2776 102.294 23.424 102.456C23.5703 102.618 23.7475 102.75 23.9451 102.843C24.1428 102.936 24.357 102.989 24.5753 102.998C24.7936 103.008 25.0116 102.974 25.2166 102.898C25.4215 102.823 25.6094 102.707 25.7693 102.558C25.9292 102.409 26.0578 102.23 26.1476 102.031C34.6354 84.0239 40.1703 70.5381 44.1316 61.2849C46.1125 56.6584 47.7024 53.0904 49.0395 50.5863C50.3765 48.0828 51.553 46.7094 52.1 46.3993C52.3736 46.2445 52.4074 46.2568 52.5819 46.3023C52.757 46.3473 53.1255 46.5359 53.6219 47.0225C54.6155 47.9956 55.991 50.0438 57.6632 52.992C60.97 58.8224 65.5921 68.1765 72.7922 80.5581C72.0358 82.3983 71.2188 84.3525 70.3222 86.4302C70.2302 86.6296 70.1791 86.8455 70.1718 87.065C70.1645 87.2845 70.2011 87.5032 70.2797 87.7084C70.3582 87.9135 70.4769 88.1008 70.6289 88.2594C70.7809 88.4179 70.9631 88.5444 71.1648 88.6315C71.3664 88.7186 71.5834 88.7644 71.803 88.7664C72.0227 88.7683 72.2405 88.7263 72.4436 88.6428C72.6467 88.5593 72.8311 88.436 72.9859 88.2802C73.1407 88.1243 73.2627 87.9391 73.3449 87.7354C76.8248 79.671 79.1822 73.3297 81.0044 69.28C81.9154 67.2554 82.7166 65.8028 83.2959 65.1037C83.5464 64.8012 83.721 64.6762 83.7941 64.6326C83.9075 64.695 84.6483 65.3062 85.5166 66.7938C86.4114 68.3261 87.4923 70.6414 88.7832 73.7273C91.3647 79.8991 94.8129 89.1733 99.7578 101.922C99.8345 102.126 99.9509 102.312 100.1 102.471C100.249 102.629 100.429 102.756 100.627 102.845C100.826 102.934 101.04 102.983 101.258 102.988C101.476 102.993 101.692 102.956 101.895 102.877C102.098 102.798 102.283 102.68 102.44 102.529C102.597 102.378 102.723 102.198 102.81 101.998C102.897 101.799 102.943 101.584 102.946 101.366C102.95 101.149 102.91 100.932 102.829 100.73C97.8923 88.002 94.4533 78.7448 91.822 72.4542C90.5063 69.3087 89.3964 66.9102 88.3604 65.1358C87.3249 63.3616 86.4381 62.0959 84.9317 61.5229C84.5552 61.3798 84.1351 61.3173 83.7184 61.328C83.3018 61.3388 82.8901 61.4239 82.5266 61.5828C81.8 61.9 81.2517 62.4097 80.761 63.0018C79.7792 64.1867 78.9548 65.8007 77.9983 67.9258C76.9507 70.2541 75.7737 73.2101 74.3634 76.701C67.9424 65.5067 63.7247 57.0009 60.5292 51.3664C58.8088 48.3329 57.416 46.1319 55.9246 44.671C55.1792 43.9407 54.3779 43.3626 53.406 43.1109C53.1628 43.0482 52.9107 43.0133 52.6584 43.0027C52.5635 42.9986 52.4711 42.9996 52.3765 43.0027L52.3763 43.0033ZM53.2482 87.86C46.3244 87.86 40.7141 94.6255 40.7141 102.973H65.7831C65.7831 94.6251 60.1724 87.8602 53.2484 87.8602L53.2482 87.86Z" fill="white"/>
</g>
<defs>
<clipPath id="clip0_44_9">
<rect width="133.062" height="200" fill="white"/>
</clipPath>
</defs>
</svg>
