<svg width="134" height="200" viewBox="0 0 134 200" fill="none" xmlns="http://www.w3.org/2000/svg">
<g clip-path="url(#clip0_48_4)">
<path d="M133.062 50.6612L66.531 0L0 50.0509L25.4324 131.027H47.8128L38.0468 141.404L66.531 200L95.0153 141.607L85.0458 131.027H107.63L133.062 50.6612Z" fill="black"/>
<g clip-path="url(#clip1_48_4)">
<path d="M93.25 43H40.75C38.6789 43 37 44.6789 37 46.75V99.25C37 101.321 38.6789 103 40.75 103H93.25C95.3211 103 97 101.321 97 99.25V46.75C97 44.6789 95.3211 43 93.25 43Z" fill="black"/>
<path d="M87.8451 45.3268L78.6318 63.9207L84.2357 70.2411L82.399 100.806H86.9447L88.7842 70.1932L94.7654 64.8904L87.8452 45.3269L87.8451 45.3268ZM72.5544 47.7406L62.3212 60.877L65.6489 66.641L62.2955 79.1082L62.2835 79.0876L61.165 83.2618L61.1739 83.2775L56.459 100.806H60.2887L63.7663 87.7768L63.7694 87.7821L64.8858 83.6153L64.8795 83.6048L69.1751 67.5098L74.8487 64.2344L72.5548 47.7405H72.5546L72.5544 47.7406ZM50.082 60.9543L51.7788 74.6114L56.9843 76.0064L59.6173 80.576L60.737 76.3971L59.6523 74.5103L61.0612 69.2521L50.0819 60.9541L50.082 60.9543ZM44.2979 69.6625L39.2964 78.9567L42.0585 82.2912L40.6078 100.806H42.8046L44.2458 82.4055L47.4811 79.726L44.2979 69.6625ZM74.4222 70.9373L71.8026 81.1617L75.2814 83.7318L77.4345 100.806H79.6423L77.4365 83.3178L79.9317 79.94L74.4221 70.9374L74.4222 70.9373ZM94.942 74.2905L90.2419 100.807H92.4661L94.942 86.8392V74.2905ZM55.1097 78.8474L48.6233 87.1736L50.8051 90.9526L48.4133 100.806H50.6672L52.9535 91.3863L56.5641 89.3017L55.11 78.8474H55.1097ZM66.4327 86.3058L65.3174 90.4679L71.2749 100.806H74.7671L66.4327 86.3057V86.3058Z" fill="white"/>
</g>
</g>
<defs>
<clipPath id="clip0_48_4">
<rect width="133.062" height="200" fill="white"/>
</clipPath>
<clipPath id="clip1_48_4">
<rect width="60" height="60" fill="white" transform="translate(37 43)"/>
</clipPath>
</defs>
</svg>
