<svg width="134" height="200" viewBox="0 0 134 200" fill="none" xmlns="http://www.w3.org/2000/svg">
<g clip-path="url(#clip0_44_24)">
<path d="M133.062 50.6612L66.531 0L0 50.0509L25.4324 131.027H47.8128L38.0468 141.404L66.531 200L95.0153 141.607L85.0458 131.027H107.63L133.062 50.6612Z" fill="black"/>
<path d="M38.3406 43.0006C38.2992 42.9997 38.2577 43 38.2166 43.0014C37.7025 43.0186 37.1912 43.2081 36.7756 43.5751C35.8257 44.4142 35.7359 45.8643 36.5749 46.8142C37.1309 47.4435 37.9547 47.6928 38.724 47.547L46.0414 55.8306L39.6684 61.4604L42.7286 64.9244C43.9545 62.221 45.5442 59.929 47.4637 58.0103L48.3379 62.5886C51.5125 61.7929 54.6428 61.2522 57.7465 60.96L54.7212 57.5352L49.8301 55.9559C51.9956 54.3238 54.4775 53.0498 57.2465 52.1004L54.186 48.6358L47.8134 54.2653L40.4856 45.9696C40.712 45.2313 40.5636 44.397 40.0149 43.7758C39.5724 43.2748 38.9598 43.0129 38.3405 43.0005L38.3406 43.0006ZM86.9731 43.0006C86.3538 43.0133 85.7415 43.2749 85.2991 43.7758C84.7502 44.397 84.6015 45.2315 84.828 45.9699L77.5002 54.2654L71.1276 48.6358L68.0674 52.1004C70.8361 53.0498 73.3178 54.3237 75.4838 55.9556L70.5927 57.5352L67.6505 60.8656C70.7768 61.1013 73.8963 61.5875 77.0277 62.3155L77.8498 58.0101C79.7694 59.9289 81.3593 62.2209 82.5853 64.9243L85.6451 61.4602L79.2722 55.8305L86.5897 47.5468C87.3589 47.6927 88.1829 47.4434 88.7388 46.8141C89.5776 45.8642 89.4878 44.4141 88.5381 43.575C88.1225 43.2081 87.6113 43.0183 87.0971 43.0012C87.0559 43 87.0145 42.9996 86.9731 43.0005V43.0006ZM63.3873 63.0547C58.3823 63.0423 53.3334 63.7159 48.1253 65.091C47.8664 76.5342 52.488 91.5772 63.1137 97.9732C73.3988 91.7575 78.5995 76.4779 78.3655 65.0899C73.3364 63.762 68.3821 63.0671 63.3872 63.0547H63.3873ZM48.5626 82.475L37.5727 94.9164L36.0292 103L43.8605 100.47L52.5256 90.661C50.8986 88.117 49.5846 85.3435 48.5626 82.475ZM77.434 83.248C76.3346 86.0615 74.9572 88.7684 73.2962 91.2365L81.4531 100.47L89.2842 103L87.7407 94.9164L77.4339 83.2478L77.434 83.248Z" fill="white"/>
</g>
<defs>
<clipPath id="clip0_44_24">
<rect width="133.062" height="200" fill="white"/>
</clipPath>
</defs>
</svg>
