<svg width="134" height="200" viewBox="0 0 134 200" fill="none" xmlns="http://www.w3.org/2000/svg">
<g clip-path="url(#clip0_44_12)">
<path d="M133.062 50.6612L66.531 0L0 50.0509L25.4324 131.027H47.8128L38.0468 141.404L66.531 200L95.0153 141.607L85.0458 131.027H107.63L133.062 50.6612Z" fill="black"/>
<path d="M62.9948 43L36.4323 57.1667H89.5573L62.9948 43ZM39.1667 59.5104V61.3333H86.8229V59.5104H39.1667ZM41.25 63.6771V90.5H45.1562V63.6771H41.25ZM54.4445 63.6771V90.5H58.3508V63.6771H54.4445ZM67.6388 63.6771V90.5H71.545V63.6771H67.6388ZM80.8333 63.6771V90.5H84.7396V63.6771H80.8333ZM39.1667 92.8438V96.75H86.8229V92.8438H39.1667ZM35 99.0938V103H90.9896V99.0938H35Z" fill="white"/>
</g>
<defs>
<clipPath id="clip0_44_12">
<rect width="133.062" height="200" fill="white"/>
</clipPath>
</defs>
</svg>
