<svg width="134" height="200" viewBox="0 0 134 200" fill="none" xmlns="http://www.w3.org/2000/svg">
<g clip-path="url(#clip0_44_33)">
<path d="M133.062 50.6612L66.531 0L0 50.0509L25.4324 131.027H47.8128L38.0468 141.404L66.531 200L95.0153 141.607L85.0458 131.027H107.63L133.062 50.6612Z" fill="black"/>
<path d="M45.1219 43C36.8158 45.6715 29.4093 50.7195 25.868 57.4773C28.1406 57.3243 27.6497 59.9214 27.6497 62.5195H25.3796C25.4299 65.8877 26.1323 66.3068 26.1323 66.3068C27.6162 66.3068 27.6162 69.0007 27.6162 71.6946H24.7807L23 98.9703C23 99.4336 23.59 99.8567 24.6596 100.24C24.6967 95.9238 24.9066 92.2355 26.1323 92.2355C27.4298 92.2355 27.5928 96.3558 27.6131 100.993C28.7572 101.213 30.0908 101.414 31.5772 101.598C31.6063 96.9891 31.8298 92.909 33.5512 92.909C35.3237 92.909 35.5071 97.2374 35.5261 102.013C37.0807 102.152 38.733 102.278 40.4788 102.388C40.5002 97.5976 40.7095 93.2457 42.7833 93.2457C44.8925 93.2457 45.0724 97.7489 45.0883 102.636C46.4867 102.7 47.9194 102.756 49.3817 102.803C49.4039 97.9819 49.6329 93.5825 52.0155 93.5825C54.4201 93.5825 54.9205 94.9294 54.9392 99.8025C59.5865 103.203 58.9824 102.219 59.603 102.999C59.6224 98.1017 59.85 93.5825 62.5666 93.5825C65.2834 93.5825 65.5109 98.1025 65.5302 103C67.1929 102.989 68.8468 102.967 70.4835 102.937C70.5023 98.0636 70.7131 93.5825 73.1178 93.5825C75.5002 93.5825 75.7292 97.9814 75.7516 102.802C76.9072 102.765 78.0627 102.723 79.2179 102.674L73.4094 89.6639L68.2747 89.2269L64.1424 70.1962L58.2033 70.6949L56.0105 61.8233L53.3254 61.4316L45.1219 43ZM42.8168 50.7337C45.1248 50.7337 45.1248 53.4276 45.1248 56.1215L40.5088 57.4684C40.5088 54.7745 40.5088 50.7337 42.8168 50.7337ZM33.5847 53.4276C35.563 53.4276 35.563 56.1215 35.563 58.8154L31.6063 59.4888C31.6063 56.7949 31.6063 53.4276 33.5847 53.4276ZM52.0155 63.6129C54.6533 63.6129 54.6533 66.3068 54.6533 69.0007L49.3778 69.3374C49.3778 66.6435 49.3778 63.6129 52.0155 63.6129ZM42.7833 64.2863C45.0913 64.2863 45.0913 66.9802 45.0913 69.6741L40.4753 70.0109C40.4753 67.317 40.4753 64.2863 42.7833 64.2863ZM33.5512 65.2965C35.5295 65.2965 35.5295 67.9904 35.5295 70.6843L31.5728 71.3578C31.5728 68.6639 31.5728 65.2965 33.5512 65.2965ZM67.1109 69.8673L70.4803 85.3866C70.4803 81.3845 70.5049 77.4191 73.1178 77.4191C75.7554 77.4191 75.7554 81.4599 75.7554 85.5008C75.5135 86.463 75.4967 86.5391 75.3884 86.7912L80.2177 97.6078C80.4554 95.0495 81.0163 93.2457 82.3499 93.2457C84.4236 93.2457 84.633 97.5974 84.6544 102.388C86.2775 102.285 87.8182 102.169 89.2773 102.041C89.2958 97.2546 89.4763 92.909 91.2524 92.909C92.9787 92.909 93.1986 97.0121 93.2265 101.637C94.9917 101.425 96.5548 101.189 97.8504 100.928C97.8722 96.318 98.0394 92.2355 99.3306 92.2355C100.545 92.2355 100.762 95.8529 100.802 100.115C101.662 99.7648 102.133 99.3836 102.133 98.9703L100.616 75.7243C98.7832 74.0404 96.2227 72.8831 93.1838 72.072L89.8344 74.4295L84.7398 73.9568L81.2545 70.3969C76.6956 70.1078 71.8456 70.0292 67.1109 69.8673ZM52.0155 77.4191C54.6533 77.4191 54.6533 81.4599 54.6533 85.5008H49.3778C49.3778 81.4599 49.3778 77.4191 52.0155 77.4191ZM62.5666 77.4191C65.5341 77.4191 65.5341 81.4599 65.5341 85.5008H59.5991C59.5991 81.4599 59.5991 77.4191 62.5666 77.4191ZM42.7833 77.7558C45.0913 77.7558 45.0913 81.7967 45.0913 85.8375H40.4753C40.4753 81.7967 40.4753 77.7558 42.7833 77.7558ZM82.3499 77.7558C84.6579 77.7558 84.6579 81.7967 84.6579 85.8375H80.0419C80.0419 81.7967 80.0419 77.7558 82.3499 77.7558ZM33.5512 78.0926C35.5295 78.0926 35.5295 81.7967 35.5295 85.8375L31.5728 86.1743C31.5728 82.1334 31.5728 78.0926 33.5512 78.0926ZM91.2524 78.0926C93.2307 78.0926 93.2307 82.1334 93.2307 86.1743L89.2741 85.8375C89.2741 81.7967 89.2741 78.0926 91.2524 78.0926ZM26.806 78.4293C28.2896 78.4293 28.2896 82.1334 28.2896 86.1743L25.3221 86.511C25.3221 82.4701 25.3223 78.4293 26.806 78.4293ZM98.6573 78.4293C100.141 78.4293 100.141 82.4701 100.141 86.511L97.1734 86.1743C97.1734 82.1334 97.1734 78.4293 98.6571 78.4293H98.6573Z" fill="white"/>
</g>
<defs>
<clipPath id="clip0_44_33">
<rect width="133.062" height="200" fill="white"/>
</clipPath>
</defs>
</svg>
