<svg width="134" height="200" viewBox="0 0 134 200" fill="none" xmlns="http://www.w3.org/2000/svg">
<g clip-path="url(#clip0_44_15)">
<path d="M133.062 50.6612L66.531 0L0 50.0509L25.4324 131.027H47.8128L38.0468 141.404L66.531 200L95.0153 141.607L85.0458 131.027H107.63L133.062 50.6612Z" fill="black"/>
<path d="M61.7618 43C59.7388 43.0653 57.7274 43.3001 55.7859 43.7046V46.8781H61.7618V43ZM64.1002 43V46.8781H70.0762V43.7046C68.1346 43.3 66.1232 43.0655 64.1002 43ZM53.4475 44.2861C51.3031 44.9076 49.2816 45.7505 47.4715 46.8159V46.8781H53.4475V44.2861ZM72.4146 44.2861V46.8781H78.3905V46.8159C76.5805 45.7505 74.5589 44.9075 72.4146 44.2861ZM44.1887 49.2165C41.0956 52.0312 39.1572 55.7981 39.1572 60.5189V63.5068H45.1331V49.2165H44.1887ZM47.4715 49.2165V63.5068H53.4475V49.2165H47.4715ZM55.7859 49.2165V63.5068H61.7618V49.2165H55.7859ZM64.1002 49.2165V63.5068H70.0762V49.2165H64.1002ZM72.4146 49.2165V63.5068H78.3905V49.2165H72.4146ZM80.7289 49.2165V63.5068H86.7049V60.5189C86.7049 55.7981 84.7665 52.0312 81.6734 49.2165H80.7289ZM39.1572 65.8452V80.1355H45.1331V65.8452H39.1572ZM47.4715 65.8452V80.1355H53.4475V65.8452H47.4715ZM55.7859 65.8452V80.1355H61.7618V65.8452H55.7859ZM64.1002 65.8452V80.1355H70.0762V65.8452H64.1002ZM72.4146 65.8452V80.1355H78.3905V65.8452H72.4146ZM80.7289 65.8452V80.1355H86.7049V65.8452H80.7289ZM39.1572 82.4739V96.7642H45.1331V82.4739H39.1572ZM47.4715 82.4739V96.7642H53.4475V82.4739H47.4715ZM55.7859 82.4739V96.7642H61.7618V82.4739H55.7859ZM64.1002 82.4739V96.7642H70.0762V82.4739H64.1002ZM72.4146 82.4739V96.7642H78.3905V82.4739H72.4146ZM80.7289 82.4739V96.7642H86.7049V82.4739H80.7289ZM35 99.1026V103H90.8621V99.1026H35Z" fill="white"/>
</g>
<defs>
<clipPath id="clip0_44_15">
<rect width="133.062" height="200" fill="white"/>
</clipPath>
</defs>
</svg>
