<svg width="134" height="200" viewBox="0 0 134 200" fill="none" xmlns="http://www.w3.org/2000/svg">
<g clip-path="url(#clip0_44_18)">
<path d="M133.062 50.6612L66.531 0L0 50.0509L25.4324 131.027H47.8128L38.0468 141.404L66.531 200L95.0153 141.607L85.0458 131.027H107.63L133.062 50.6612Z" fill="black"/>
<path d="M36.022 43C35.4828 43 34.9598 43.186 34.6039 43.5028C34.2467 43.8196 34 44.2469 34 45.022V63.2202H42.7351C42.6542 61.8317 42.5868 60.4433 42.5194 59.1761H38.044V45.022C38.044 44.2469 37.7973 43.8196 37.4401 43.5028C37.0843 43.186 36.5612 43 36.022 43ZM89.9425 43C89.4033 43 88.8776 43.186 88.5271 43.5028C88.1631 43.8196 87.9205 44.2469 87.9205 45.022V59.1761H83.836C83.9169 60.4568 84.0112 61.8452 84.1056 63.2202H91.9645V45.022C91.9645 44.2469 91.7219 43.8196 91.3579 43.5028C91.0074 43.186 90.4817 43 89.9425 43ZM44.8515 57.0732C45.0941 62.0204 45.4716 68.2752 45.7277 74.6783L45.9703 74.4356C47.4666 72.9798 49.273 71.3352 51.4972 71.2678C52.643 71.2408 53.6405 71.7126 54.4224 72.3058C55.2042 72.8989 55.8243 73.6268 56.4309 74.3008C57.6172 75.6623 58.6147 76.6599 59.5583 76.7138C60.4884 76.7677 61.5264 75.9724 62.8205 74.84C64.1011 73.6942 65.6244 72.2249 67.8081 72.3058C70.248 72.4136 71.7713 74.3278 73.1058 75.7971C73.7798 76.525 74.3999 77.1721 74.9796 77.5765C75.5457 77.9809 75.9906 78.1292 76.5028 78.0753C77.4464 77.9539 79.2393 76.3902 80.5199 74.6513C81.2613 73.6538 81.8544 72.6697 82.2319 72.0092C81.9083 66.6037 81.5444 61.4543 81.2613 57.0732C68.9944 57.7472 56.8758 57.599 44.8515 57.0732ZM51.5781 73.6942C50.7827 73.7212 49.0034 74.867 47.6688 76.1746C46.9005 76.916 46.2534 77.6439 45.849 78.1561C45.9164 80.3669 45.9569 82.5776 45.9703 84.7344C46.1591 84.5727 46.3343 84.4109 46.523 84.2492C48.3159 82.6989 50.4997 80.96 52.9665 81.2026C54.0854 81.324 54.9481 81.998 55.5412 82.7259C56.1344 83.4404 56.5522 84.2626 56.9432 85.004C57.3476 85.7589 57.725 86.4329 58.0755 86.8643C58.426 87.2822 58.6686 87.4305 58.9921 87.4439C59.4235 87.4709 59.774 87.3091 60.2862 86.8373C60.7985 86.3521 61.3377 85.5837 61.9173 84.7614C62.497 83.9391 63.1036 83.0494 63.8854 82.3215C64.6268 81.634 65.6244 81.0813 66.7971 81.0948C66.8645 81.0948 66.9454 81.0948 67.0263 81.1083C68.3204 81.2296 69.3179 82.0249 69.9784 82.9146C70.6524 83.8043 71.0973 84.8153 71.5421 85.7724C71.987 86.716 72.4183 87.6057 72.8497 88.1854C73.2811 88.765 73.6046 88.9807 74.0764 89.0211C74.6965 89.075 75.6266 88.7785 76.6241 88.1449C77.6217 87.4979 78.6731 86.5677 79.6032 85.6106C81.2748 83.8852 82.5015 82.1867 82.7441 81.8497C82.6632 79.9355 82.5689 78.0079 82.4745 76.0937C81.0456 78.0079 79.2797 80.1916 76.7994 80.4747C75.5592 80.623 74.4538 80.1782 73.5776 79.5581C72.7014 78.9515 72.0005 78.1696 71.313 77.4282C69.965 75.9454 68.7922 74.7726 67.7003 74.7322C66.7702 74.6918 65.7187 75.514 64.4246 76.6464C63.144 77.7922 61.6073 79.2615 59.4235 79.1402C57.1588 79.0189 55.7839 77.253 54.5976 75.905C54.018 75.231 53.4518 74.6244 52.953 74.2334C52.4408 73.8425 52.0364 73.6807 51.5781 73.6942ZM66.6488 83.5347C66.2849 83.5347 65.9748 83.6965 65.53 84.1009C65.0312 84.5727 64.4785 85.3276 63.9124 86.1499C63.3327 86.9721 62.7261 87.8618 61.9443 88.6032C61.1624 89.3312 60.0975 89.9512 58.8304 89.8704C57.7115 89.7895 56.8218 89.1424 56.2152 88.428C55.6221 87.7135 55.2042 86.8913 54.7998 86.1499C54.4089 85.395 54.0315 84.7075 53.6675 84.2626C53.3035 83.8178 53.0474 83.656 52.7239 83.6291C51.7938 83.5212 49.7313 84.667 48.1272 86.0825C47.251 86.8508 46.4961 87.6192 45.9703 88.1719C45.9434 91.6363 45.8086 94.885 45.5255 97.7293C60.4615 96.4756 71.4208 100.088 82.6228 103C83.0407 97.918 83.0676 91.8654 82.8789 85.5972C82.4206 86.1364 81.9083 86.716 81.3422 87.2957C80.3312 88.3471 79.1719 89.3851 77.9317 90.1804C76.6781 90.9757 75.33 91.5689 73.8607 91.4475C72.5666 91.3262 71.5691 90.5309 70.9086 89.6412C70.2346 88.7515 69.7897 87.7405 69.3449 86.7834C68.9 85.8398 68.4687 84.9501 68.0373 84.3705C67.6059 83.7908 67.2824 83.5752 66.8106 83.5347C66.7567 83.5347 66.7028 83.5212 66.6488 83.5347Z" fill="white"/>
</g>
<defs>
<clipPath id="clip0_44_18">
<rect width="133.062" height="200" fill="white"/>
</clipPath>
</defs>
</svg>
