<svg width="134" height="200" viewBox="0 0 134 200" fill="none" xmlns="http://www.w3.org/2000/svg">
<g clip-path="url(#clip0_20_2)">
<path d="M133.062 50.6612L66.531 0L0 50.0509L25.4324 131.027H47.8128L38.0468 141.404L66.531 200L95.0153 141.607L85.0458 131.027H107.63L133.062 50.6612Z" fill="black"/>
<path d="M39.4477 43V70.0121H91.5523V43H39.4477ZM19 46.7424C22.1764 55.3607 28.9405 61.4437 36.351 63.893V46.7424H19ZM94.7573 48.9929V65.2015C98.6802 63.5409 102.604 60.5839 106.526 56.5404C102.592 52.4156 98.7323 50.1094 94.7573 48.9929ZM53.3936 73.2115C51.1723 80.2568 47.1964 86.2834 42.3154 91.5798L89.4553 91.5794C84.2073 86.2746 80.3229 80.2345 78.2117 73.2115H53.3936ZM34.5398 94.996V103H96.2539V94.996H34.5398Z" fill="white"/>
</g>
<defs>
<clipPath id="clip0_20_2">
<rect width="133.062" height="200" fill="white"/>
</clipPath>
</defs>
</svg>
