<svg width="134" height="200" viewBox="0 0 134 200" fill="none" xmlns="http://www.w3.org/2000/svg">
<g clip-path="url(#clip0_44_52)">
<path d="M133.062 50.6612L66.531 0L0 50.0509L25.4324 131.027H47.8128L38.0468 141.404L66.531 200L95.0153 141.607L85.0458 131.027H107.63L133.062 50.6612Z" fill="black"/>
<path d="M61.4188 43V50.8155L53.8929 53.5284L54.744 55.8848L61.419 53.4781V66.3794L49.7254 70.9204L50.631 73.2558L61.4192 69.0673V88.1155H53.1469L52.9539 87.0966L52.3251 83.7339H44.484V64.6185L52.5553 61.7089L51.704 59.3482L44.4839 61.9519V50.7571H41.9769V62.8576L35 65.3733L35.8512 67.7298L41.9768 65.52V83.7337H35.1759C35.9226 91.0326 38.8424 98.2349 44.1361 103H82.018C83.2984 96.0842 87.3621 90.2342 91.9048 84.6937H91.8964L97.9889 80.3626L96.5381 78.3165L87.5656 84.6936H80.9031V69.671L89.2469 66.6605L88.3999 64.3041L80.9031 67.0085V58.0148H78.3957V67.9139L71.6956 70.329L72.5426 72.6854L78.3958 70.5722V86.8868L77.7374 87.6708L77.3602 88.115H63.9264V68.0945L75.6201 63.5536L74.7104 61.2181L63.9263 65.4067V52.5767L71.4479 49.8638L70.597 47.5034L63.926 49.9101V43.0003H61.4188V43Z" fill="white"/>
</g>
<defs>
<clipPath id="clip0_44_52">
<rect width="133.062" height="200" fill="white"/>
</clipPath>
</defs>
</svg>
