<svg width="134" height="200" viewBox="0 0 134 200" fill="none" xmlns="http://www.w3.org/2000/svg">
<g clip-path="url(#clip0_59_43)">
<path d="M133.062 50.6612L66.531 0L0 50.0509L25.4324 131.027H47.8128L38.0468 141.404L66.531 200L95.0153 141.607L85.0458 131.027H107.63L133.062 50.6612Z" fill="black"/>
<g clip-path="url(#clip1_59_43)">
<path d="M93.25 43H40.75C38.6789 43 37 44.6789 37 46.75V99.25C37 101.321 38.6789 103 40.75 103H93.25C95.3211 103 97 101.321 97 99.25V46.75C97 44.6789 95.3211 43 93.25 43Z" fill="black"/>
<path d="M41.4211 45.9297L50.5618 55.0703H83.4382L92.5789 45.9297H41.4211ZM39.9297 47.4211V98.5789L49.0703 89.4382V56.5618L39.9297 47.4211ZM94.0703 47.4211L84.9297 56.5618V89.4382L94.0703 98.5789V47.4211ZM46.37 47.6875C46.6186 47.6875 46.8571 47.7863 47.0329 47.9621C47.2087 48.1379 47.3075 48.3764 47.3075 48.625C47.3075 48.8736 47.2087 49.1121 47.0329 49.2879C46.8571 49.4637 46.6186 49.5625 46.37 49.5625C46.1213 49.5625 45.8829 49.4637 45.707 49.2879C45.5312 49.1121 45.4325 48.8736 45.4325 48.625C45.4325 48.3764 45.5312 48.1379 45.707 47.9621C45.8829 47.7863 46.1213 47.6875 46.37 47.6875ZM87.625 47.7804C87.8736 47.7804 88.1121 47.8792 88.2879 48.055C88.4637 48.2308 88.5625 48.4693 88.5625 48.7179C88.5625 48.9666 88.4637 49.205 88.2879 49.3808C88.1121 49.5567 87.8736 49.6554 87.625 49.6554C87.3764 49.6554 87.1379 49.5567 86.9621 49.3808C86.7863 49.205 86.6875 48.9666 86.6875 48.7179C86.6875 48.4693 86.7863 48.2308 86.9621 48.055C87.1379 47.8792 87.3764 47.7804 87.625 47.7804ZM50.125 51.4375C50.3736 51.4375 50.6121 51.5363 50.7879 51.7121C50.9637 51.8879 51.0625 52.1264 51.0625 52.375C51.0625 52.6236 50.9637 52.8621 50.7879 53.0379C50.6121 53.2137 50.3736 53.3125 50.125 53.3125C49.8764 53.3125 49.6379 53.2137 49.4621 53.0379C49.2863 52.8621 49.1875 52.6236 49.1875 52.375C49.1875 52.1264 49.2863 51.8879 49.4621 51.7121C49.6379 51.5363 49.8764 51.4375 50.125 51.4375ZM83.8105 51.4375C84.0592 51.4375 84.2976 51.5363 84.4735 51.7121C84.6493 51.8879 84.748 52.1264 84.748 52.375C84.748 52.6236 84.6493 52.8621 84.4735 53.0379C84.2976 53.2137 84.0592 53.3125 83.8105 53.3125C83.5619 53.3125 83.3235 53.2137 83.1476 53.0379C82.9718 52.8621 82.873 52.6236 82.873 52.375C82.873 52.1264 82.9718 51.8879 83.1476 51.7121C83.3235 51.5363 83.5619 51.4375 83.8105 51.4375ZM91.2426 51.4375C91.4912 51.4375 91.7297 51.5363 91.9055 51.7121C92.0813 51.8879 92.1801 52.1264 92.1801 52.375C92.1801 52.6236 92.0813 52.8621 91.9055 53.0379C91.7297 53.2137 91.4912 53.3125 91.2426 53.3125C90.9939 53.3125 90.7555 53.2137 90.5797 53.0379C90.4038 52.8621 90.3051 52.6236 90.3051 52.375C90.3051 52.1264 90.4038 51.8879 90.5797 51.7121C90.7555 51.5363 90.9939 51.4375 91.2426 51.4375ZM42.625 51.5602C42.8736 51.5602 43.1121 51.659 43.2879 51.8348C43.4637 52.0106 43.5625 52.2491 43.5625 52.4977C43.5625 52.7463 43.4637 52.9848 43.2879 53.1606C43.1121 53.3364 42.8736 53.4352 42.625 53.4352C42.3764 53.4352 42.1379 53.3364 41.9621 53.1606C41.7863 52.9848 41.6875 52.7463 41.6875 52.4977C41.6875 52.2491 41.7863 52.0106 41.9621 51.8348C42.1379 51.659 42.3764 51.5602 42.625 51.5602ZM46.3041 55.1875C46.5527 55.1875 46.7912 55.2863 46.967 55.4621C47.1428 55.6379 47.2416 55.8764 47.2416 56.125C47.2416 56.3736 47.1428 56.6121 46.967 56.7879C46.7912 56.9637 46.5527 57.0625 46.3041 57.0625C46.0555 57.0625 45.817 56.9637 45.6412 56.7879C45.4654 56.6121 45.3666 56.3736 45.3666 56.125C45.3666 55.8764 45.4654 55.6379 45.6412 55.4621C45.817 55.2863 46.0555 55.1875 46.3041 55.1875ZM87.625 55.2109C87.8736 55.2109 88.1121 55.3097 88.2879 55.4855C88.4637 55.6613 88.5625 55.8998 88.5625 56.1484C88.5625 56.3971 88.4637 56.6355 88.2879 56.8114C88.1121 56.9872 87.8736 57.0859 87.625 57.0859C87.3764 57.0859 87.1379 56.9872 86.9621 56.8114C86.7863 56.6355 86.6875 56.3971 86.6875 56.1484C86.6875 55.8998 86.7863 55.6613 86.9621 55.4855C87.1379 55.3097 87.3764 55.2109 87.625 55.2109ZM51.1797 57.1797V79.8289L57.4727 73.5359L57.3982 57.1797H51.1797ZM59.5075 57.1797L59.5725 71.436L65.9452 65.0634V57.1797H59.5075ZM68.0547 57.1797V62.9539L73.8289 57.1797H68.0547ZM76.8118 57.1797L51.1797 82.8118V88.8203H57.1882L82.8203 63.1882V57.1797H76.8118ZM82.8203 66.1711L76.6067 72.3848V88.8203H82.8203V66.1711ZM74.4973 74.4941L68.0547 80.9368V88.8203H74.4973V74.4941ZM65.9453 83.0461L60.1711 88.8203H65.9453V83.0461ZM46.1371 88.9375C46.3857 88.9375 46.6242 89.0363 46.8 89.2121C46.9758 89.3879 47.0746 89.6264 47.0746 89.875C47.0746 90.1236 46.9758 90.3621 46.8 90.5379C46.6242 90.7137 46.3857 90.8125 46.1371 90.8125C45.8885 90.8125 45.65 90.7137 45.4742 90.5379C45.2984 90.3621 45.1996 90.1236 45.1996 89.875C45.1996 89.6264 45.2984 89.3879 45.4742 89.2121C45.65 89.0363 45.8885 88.9375 46.1371 88.9375ZM87.625 89.0146C87.8736 89.0146 88.1121 89.1134 88.2879 89.2892C88.4637 89.465 88.5625 89.7035 88.5625 89.9521C88.5625 90.2007 88.4637 90.4392 88.2879 90.615C88.1121 90.7908 87.8736 90.8896 87.625 90.8896C87.3764 90.8896 87.1379 90.7908 86.9621 90.615C86.7863 90.4392 86.6875 90.2007 86.6875 89.9521C86.6875 89.7035 86.7863 89.465 86.9621 89.2892C87.1379 89.1134 87.3764 89.0146 87.625 89.0146ZM50.5618 90.9297L41.4211 100.07H92.5789L83.4382 90.9297H50.5618ZM42.625 92.6584C42.8736 92.6584 43.1121 92.7572 43.2879 92.933C43.4637 93.1088 43.5625 93.3473 43.5625 93.5959C43.5625 93.8446 43.4637 94.083 43.2879 94.2588C43.1121 94.4347 42.8736 94.5334 42.625 94.5334C42.3764 94.5334 42.1379 94.4347 41.9621 94.2588C41.7863 94.083 41.6875 93.8446 41.6875 93.5959C41.6875 93.3473 41.7863 93.1088 41.9621 92.933C42.1379 92.7572 42.3764 92.6584 42.625 92.6584ZM50.125 92.7522C50.3736 92.7522 50.6121 92.851 50.7879 93.0268C50.9637 93.2026 51.0625 93.441 51.0625 93.6897C51.0625 93.9383 50.9637 94.1768 50.7879 94.3526C50.6121 94.5284 50.3736 94.6272 50.125 94.6272C49.8764 94.6272 49.6379 94.5284 49.4621 94.3526C49.2863 94.1768 49.1875 93.9383 49.1875 93.6897C49.1875 93.441 49.2863 93.2026 49.4621 93.0268C49.6379 92.851 49.8764 92.7522 50.125 92.7522ZM83.875 92.8356C84.1236 92.8356 84.3621 92.9344 84.5379 93.1102C84.7137 93.286 84.8125 93.5245 84.8125 93.7731C84.8125 94.0218 84.7137 94.2602 84.5379 94.436C84.3621 94.6119 84.1236 94.7106 83.875 94.7106C83.6264 94.7106 83.3879 94.6119 83.2121 94.436C83.0363 94.2602 82.9375 94.0218 82.9375 93.7731C82.9375 93.5245 83.0363 93.286 83.2121 93.1102C83.3879 92.9344 83.6264 92.8356 83.875 92.8356ZM91.375 93.3911C91.6236 93.3911 91.8621 93.4899 92.0379 93.6657C92.2137 93.8415 92.3125 94.08 92.3125 94.3286C92.3125 94.5772 92.2137 94.8157 92.0379 94.9915C91.8621 95.1673 91.6236 95.2661 91.375 95.2661C91.1264 95.2661 90.8879 95.1673 90.7121 94.9915C90.5363 94.8157 90.4375 94.5772 90.4375 94.3286C90.4375 94.08 90.5363 93.8415 90.7121 93.6657C90.8879 93.4899 91.1264 93.3911 91.375 93.3911ZM87.625 96.4375C87.8736 96.4375 88.1121 96.5363 88.2879 96.7121C88.4637 96.8879 88.5625 97.1264 88.5625 97.375C88.5625 97.6236 88.4637 97.8621 88.2879 98.0379C88.1121 98.2137 87.8736 98.3125 87.625 98.3125C87.3764 98.3125 87.1379 98.2137 86.9621 98.0379C86.7863 97.8621 86.6875 97.6236 86.6875 97.375C86.6875 97.1264 86.7863 96.8879 86.9621 96.7121C87.1379 96.5363 87.3764 96.4375 87.625 96.4375ZM46.375 96.7375C46.6236 96.7375 46.8621 96.8363 47.0379 97.0121C47.2137 97.1879 47.3125 97.4264 47.3125 97.675C47.3125 97.9236 47.2137 98.1621 47.0379 98.3379C46.8621 98.5137 46.6236 98.6125 46.375 98.6125C46.1264 98.6125 45.8879 98.5137 45.7121 98.3379C45.5363 98.1621 45.4375 97.9236 45.4375 97.675C45.4375 97.4264 45.5363 97.1879 45.7121 97.0121C45.8879 96.8363 46.1264 96.7375 46.375 96.7375Z" fill="white"/>
</g>
</g>
<defs>
<clipPath id="clip0_59_43">
<rect width="133.062" height="200" fill="white"/>
</clipPath>
<clipPath id="clip1_59_43">
<rect width="60" height="60" fill="white" transform="translate(37 43)"/>
</clipPath>
</defs>
</svg>
