<svg width="134" height="200" viewBox="0 0 134 200" fill="none" xmlns="http://www.w3.org/2000/svg">
<g clip-path="url(#clip0_64_87)">
<path d="M133.062 50.6612L66.531 0L0 50.0509L25.4324 131.027H47.8128L38.0468 141.404L66.531 200L95.0153 141.607L85.0458 131.027H107.63L133.062 50.6612Z" fill="black"/>
<g clip-path="url(#clip1_64_87)">
<path d="M93.25 43H40.75C38.6789 43 37 44.6789 37 46.75V99.25C37 101.321 38.6789 103 40.75 103H93.25C95.3211 103 97 101.321 97 99.25V46.75C97 44.6789 95.3211 43 93.25 43Z" fill="black"/>
<path d="M87.8376 51.0465C87.5165 51.0524 87.1936 51.0961 86.8717 51.1815C85.8791 51.4452 85.0787 52.0619 84.4764 52.8796C71.3248 57.1638 58.8547 61.1148 45.8214 65.3125C41.1674 66.8113 38.2511 71.3081 39.6097 75.4825C40.9688 79.6567 45.9779 81.6087 50.6295 80.0853L50.6292 80.0855C63.4507 75.887 75.757 71.9953 88.7292 67.8211C88.7949 67.846 88.8617 67.8668 88.9277 67.8891C88.6207 68.233 88.4325 68.6855 88.4325 69.1828C88.4325 70.2567 89.3032 71.1273 90.3771 71.1273C91.4511 71.1273 92.322 70.2566 92.322 69.1828C92.322 68.6766 92.127 68.2172 91.8102 67.8713C93.3043 67.3012 94.3125 65.8948 94.8026 64.2504C95.3354 62.4625 95.3304 60.3066 94.7342 58.1004C94.1379 55.894 93.0552 54.0258 91.6943 52.7435C90.6734 51.7819 89.4369 51.1275 88.1582 51.0525C88.0515 51.0464 87.9447 51.0443 87.8376 51.0462V51.0465ZM87.8958 53.2356C87.9491 53.2348 88.0029 53.2362 88.0572 53.2397C88.7095 53.2817 89.4421 53.6311 90.1923 54.3378C91.1925 55.2799 92.1189 56.818 92.62 58.6721C93.0444 60.2424 93.0887 61.7655 92.8558 62.9906H86.6702C86.2581 62.2633 85.9071 61.426 85.6599 60.5112C85.1588 58.6571 85.1857 56.8674 85.576 55.5581C85.9662 54.2489 86.6449 53.5077 87.434 53.2982C87.5818 53.2588 87.7361 53.2376 87.8957 53.2354L87.8958 53.2356ZM83.3942 55.2328C82.9471 56.9595 82.9821 58.9984 83.5453 61.0828C83.7263 61.7516 83.9522 62.3887 84.2166 62.9883H66.4955C58.948 65.419 51.7467 67.7352 47.3529 69.1512C44.6295 70.0285 43.21 72.363 43.7897 74.1426C44.3693 75.9224 46.9048 76.9941 49.6198 76.1055C57.4585 73.5402 72.9413 68.5597 85.1067 64.6442C85.5474 65.3247 86.044 65.9294 86.5856 66.4398C86.5934 66.4469 86.6015 66.4537 86.6091 66.4609C74.3189 70.4163 58.2895 75.5711 50.3009 78.1855C46.6883 79.368 42.7512 78.0292 41.7059 74.8199C40.6606 71.6107 43.0656 68.2316 46.6791 67.0674C54.6543 64.4974 71.0775 59.2163 83.3942 55.2328ZM90.3762 76.3506C88.3901 83.7633 85.6293 82.734 85.6293 87.0733C85.6293 89.6936 87.7558 91.8203 90.3762 91.8203C92.9965 91.8203 95.1231 89.6937 95.1231 87.0733C95.1231 82.3893 92.3978 83.8951 90.3762 76.3506Z" fill="white"/>
</g>
</g>
<defs>
<clipPath id="clip0_64_87">
<rect width="133.062" height="200" fill="white"/>
</clipPath>
<clipPath id="clip1_64_87">
<rect width="60" height="60" fill="white" transform="translate(37 43)"/>
</clipPath>
</defs>
</svg>
