<svg width="134" height="200" viewBox="0 0 134 200" fill="none" xmlns="http://www.w3.org/2000/svg">
<g clip-path="url(#clip0_44_6)">
<path d="M133.062 50.6612L66.531 0L0 50.0509L25.4324 131.027H47.8128L38.0468 141.404L66.531 200L95.0153 141.607L85.0458 131.027H107.63L133.062 50.6612Z" fill="black"/>
<path d="M63.4526 43.0001C61.1519 42.9921 58.932 44.2489 57.9685 46.6164V47.8484L56.5218 47.5305C54.7012 47.1274 53.2419 47.3843 52.2775 48.0192C51.313 48.6543 50.7294 49.6595 50.7076 51.2542C50.6911 52.4674 50.9531 53.266 51.3197 53.7975C51.6862 54.3291 52.1683 54.646 52.8338 54.8228C54.1646 55.1763 56.2254 54.7774 58.0597 53.71L58.8186 53.2688L59.4625 53.8611C60.5313 54.8459 61.3077 55.2689 62.077 55.4189C62.8467 55.569 63.7361 55.4594 65.0579 55.0533L66.3095 54.6678L66.5718 55.9513C66.9146 57.6246 68.4679 58.9279 70.2756 58.9279C71.959 58.9279 73.2857 57.7798 73.749 56.1979L74.0311 55.24L75.0208 55.3472C76.1469 55.4731 77.4892 54.8328 78.2 54.0319L78.9631 53.1735L79.8492 53.9088C82.2158 55.8783 84.3586 56.0656 85.8621 55.3672C87.3652 54.6685 88.4284 53.0016 88.3101 50.4353C88.1982 48.0411 86.9151 46.5633 85.0673 45.8811C83.2193 45.199 80.7741 45.4221 78.5458 46.9262L77.6002 47.5661L76.9206 46.6442C76.0256 45.4252 74.7473 44.6749 73.5226 44.4823C72.2983 44.2895 71.1717 44.6003 70.2959 45.5513L69.354 46.5724L68.4918 45.4839C67.1638 43.8097 65.2854 43.0065 63.4526 43.0001ZM39.6881 55.7844C36.2011 66.4262 34.673 77.289 35.0581 88.3679C40.0876 90.5591 45.4124 90.6703 50.7554 90.657C51.0547 89.2488 51.3347 87.7906 51.594 86.3052C47.5116 86.5186 43.4432 86.6257 39.6003 85.145C39.304 76.6399 40.4799 69.6784 43.161 61.3605C46.635 62.1871 50.1566 62.4555 53.7479 62.3101C53.739 60.8203 53.6986 59.4417 53.6169 58.2013C48.8903 57.9818 44.2581 57.1023 39.6881 55.7851V55.7844ZM58.5091 56.1621C57.6736 56.5805 56.8088 56.9022 55.9415 57.1039C56.3347 61.3585 56.1891 67.073 55.6635 73.2664C55.056 80.4234 53.9002 88.0815 52.3014 94.4677H86.6172C85.3542 87.7831 84.2249 80.2744 83.6168 73.2661C83.1247 67.5921 82.9513 62.3149 83.3587 58.0418C81.9882 57.8788 80.555 57.3243 79.17 56.3606C78.2165 57.1221 77.0139 57.6508 75.7046 57.7277C74.7559 59.7938 72.7263 61.3043 70.276 61.3043C67.7779 61.3043 65.5911 59.7961 64.6368 57.6243C63.5864 57.864 62.603 57.9431 61.6204 57.7515C60.5305 57.5391 59.5262 56.9867 58.5089 56.1619L58.5091 56.1621ZM48.5421 96.8443L46.1737 103H91.7874L89.0253 96.8443H48.5423H48.5421Z" fill="white"/>
</g>
<defs>
<clipPath id="clip0_44_6">
<rect width="133.062" height="200" fill="white"/>
</clipPath>
</defs>
</svg>
