<svg width="134" height="200" viewBox="0 0 134 200" fill="none" xmlns="http://www.w3.org/2000/svg">
<g clip-path="url(#clip0_44_27)">
<path d="M133.062 50.6612L66.531 0L0 50.0509L25.4324 131.027H47.8128L38.0468 141.404L66.531 200L95.0153 141.607L85.0458 131.027H107.63L133.062 50.6612Z" fill="black"/>
<path d="M50.0319 43V102.818H60.8826V43H50.0319ZM30 49.6773V76.1084H36.3991V49.6773H30ZM51.9795 52.8769H54.4835V97.3923H51.9795V52.8769ZM69.8865 53.9466L63.5882 55.0768L72.1887 103L78.4871 101.87L69.8865 53.9466ZM38.9031 56.3546V93.9145H47.528V56.3546H38.9031ZM78.063 60.3443L74.2244 61.9821L74.9887 63.7734L78.8273 62.1357L78.063 60.3443ZM79.8103 64.4388L75.9712 66.0764L76.7355 67.8677L80.574 66.2301L79.81 64.4388H79.8103ZM81.5568 68.5334L77.7182 70.1707L91.5839 102.671L95.4225 101.033L81.557 68.5334H81.5568ZM30 78.6124V82.7857H36.3991V78.6124H30ZM56.431 79.5861H58.935V97.3923H56.431V79.5861ZM30 85.2897V102.818H36.3991V85.2897H30ZM38.9031 96.4185V102.818H47.528V96.4185H38.9031Z" fill="white"/>
</g>
<defs>
<clipPath id="clip0_44_27">
<rect width="133.062" height="200" fill="white"/>
</clipPath>
</defs>
</svg>
