<svg width="134" height="200" viewBox="0 0 134 200" fill="none" xmlns="http://www.w3.org/2000/svg">
<g clip-path="url(#clip0_56_12)">
<path d="M133.062 50.6612L66.531 0L0 50.0509L25.4324 131.027H47.8128L38.0468 141.404L66.531 200L95.0153 141.607L85.0458 131.027H107.63L133.062 50.6612Z" fill="black"/>
<g clip-path="url(#clip1_56_12)">
<path d="M93.25 43H40.75C38.6789 43 37 44.6789 37 46.75V99.25C37 101.321 38.6789 103 40.75 103H93.25C95.3211 103 97 101.321 97 99.25V46.75C97 44.6789 95.3211 43 93.25 43Z" fill="black"/>
<path d="M66.9999 53.5012L39.635 63.7633L66.9999 77.4458L80.0335 70.929L67.8065 67.1907C67.5547 67.3115 67.2792 67.3744 66.9999 67.375C66.5027 67.375 66.0257 67.1775 65.6741 66.8259C65.3225 66.4742 65.1249 65.9973 65.1249 65.5C65.1249 65.0028 65.3225 64.5259 65.6741 64.1742C66.0257 63.8226 66.5027 63.625 66.9999 63.625L66.6899 64.6331L68.8622 65.3014C68.8625 65.3036 68.8628 65.3058 68.8631 65.308L72.0686 66.2883L90.3202 71.9038V73.3271C90.0678 73.4989 89.8611 73.7297 89.7182 73.9994C89.5752 74.2692 89.5003 74.5698 89.4999 74.8752C89.5003 75.1875 89.5786 75.4948 89.7279 75.7691C89.8771 76.0435 90.0926 76.2762 90.3546 76.4462C89.5011 79.6718 89.4999 86.9902 89.4999 89.8751C91.3749 91.0932 91.3749 91.1377 93.2499 89.8751C93.2499 86.9906 93.249 79.6735 92.3956 76.4472C92.6578 76.2771 92.8732 76.0442 93.0224 75.7696C93.1716 75.495 93.2498 75.1875 93.2499 74.875C93.2499 74.5694 93.1751 74.2684 93.0322 73.9982C92.8892 73.7281 92.6823 73.4969 92.4296 73.325V70.3461L85.4776 68.2071L94.3649 63.7633L66.9999 53.5012ZM51.0183 72.1797L49.4804 81.4071C52.5478 81.8082 56.217 83.5911 59.5902 85.6993C61.5085 86.8984 63.3054 88.2145 64.7647 89.4915C65.6567 90.272 66.4026 91.0208 66.9999 91.7575C67.5972 91.0207 68.3431 90.272 69.2352 89.4915C70.6945 88.2145 72.4912 86.8984 74.4097 85.6993C77.7828 83.5911 81.4521 81.8082 84.5195 81.4071L82.9814 72.1797H82.249L66.9999 79.8043L51.7507 72.1797H51.0183Z" fill="white"/>
</g>
</g>
<defs>
<clipPath id="clip0_56_12">
<rect width="133.062" height="200" fill="white"/>
</clipPath>
<clipPath id="clip1_56_12">
<rect width="60" height="60" fill="white" transform="translate(37 43)"/>
</clipPath>
</defs>
</svg>
