<svg width="134" height="200" viewBox="0 0 134 200" fill="none" xmlns="http://www.w3.org/2000/svg">
<g clip-path="url(#clip0_61_63)">
<path d="M133.062 50.6612L66.531 0L0 50.0509L25.4324 131.027H47.8128L38.0468 141.404L66.531 200L95.0153 141.607L85.0458 131.027H107.63L133.062 50.6612Z" fill="black"/>
<g clip-path="url(#clip1_61_63)">
<path d="M93.25 43H40.75C38.6789 43 37 44.6789 37 46.75V99.25C37 101.321 38.6789 103 40.75 103H93.25C95.3211 103 97 101.321 97 99.25V46.75C97 44.6789 95.3211 43 93.25 43Z" fill="black"/>
<path d="M52.9377 47.7975L42.6252 52.9537V64.5626H63.2502V52.9536L52.9377 47.7975ZM93.2502 48.6251L65.1252 58.0001V61.7501L93.2502 69.2501V48.6251ZM44.5002 54.2501H48.1806L48.2173 61.7501H44.5002V54.2501ZM50.0556 54.2501H55.6806L55.7173 61.7501H50.0923L50.0556 54.2501ZM57.5556 54.2501H61.3752V61.7501H57.5924L57.5556 54.2501ZM46.2946 66.5547L39.2378 100.07H66.6376L66.6266 100.019L66.6413 100.03C67.4999 98.79 69.7139 97.3459 72.0356 96.723C73.2298 98.9177 75.5238 100.305 78.2501 100.305H78.7335L79.0485 99.9385C80.3782 98.4007 81.2756 97.0942 83.2489 96.6683C84.4541 98.9796 86.9529 100.305 89.5002 100.305H90.1155L90.4194 99.77C91.4483 97.9533 91.727 97.6615 93.7996 96.4009L92.701 94.5991C90.7744 95.771 89.884 96.6347 88.9436 98.1551C87.1262 97.9637 85.4733 96.8574 84.8713 95.1485L84.5966 94.3721L83.7763 94.449C80.717 94.7361 79.1175 96.6113 77.7925 98.1662C75.7353 98.0217 74.2968 96.9221 73.6103 95.1228L73.299 94.3064L72.4348 94.4638C70.0008 94.9067 67.6908 96.0247 66.0956 97.4887L59.5808 66.5547H46.2947H46.2946ZM47.1955 73.0001H49.3049V78.6251H47.1955V73.0001ZM56.5705 88.0001H58.6799V93.6251H56.5705V88.0001Z" fill="white"/>
</g>
</g>
<defs>
<clipPath id="clip0_61_63">
<rect width="133.062" height="200" fill="white"/>
</clipPath>
<clipPath id="clip1_61_63">
<rect width="60" height="60" fill="white" transform="translate(37 43)"/>
</clipPath>
</defs>
</svg>
