<svg width="134" height="200" viewBox="0 0 134 200" fill="none" xmlns="http://www.w3.org/2000/svg">
<g clip-path="url(#clip0_44_21)">
<path d="M133.062 50.6612L66.531 0L0 50.0509L25.4324 131.027H47.8128L38.0468 141.404L66.531 200L95.0153 141.607L85.0458 131.027H107.63L133.062 50.6612Z" fill="black"/>
<path d="M62.8181 43.0007C61.5084 43.0131 60.2019 43.1814 59.1764 43.4966C58.1508 43.812 57.4598 44.2807 57.1888 44.6841C56.152 46.2271 55.8696 47.521 56.0115 48.6998C56.1535 49.8785 56.753 51.0136 57.7787 52.107C59.2097 53.6324 61.4689 54.9862 64.0075 56.0247C62.8687 53.8805 62.2797 51.8363 62.5023 49.8162C62.7676 47.4051 64.2399 45.2994 66.7681 43.4549C66.6766 43.4296 66.5958 43.4001 66.4993 43.3775C65.4464 43.1299 64.1279 42.9885 62.8181 43.0007ZM68.3105 45.5385C66.183 47.0579 65.2748 48.5338 65.1021 50.1022C64.8879 52.0489 65.8836 54.5554 68.1378 57.6853L70.1759 60.5148C72.0072 59.2552 73.8112 58.6661 75.5218 58.6314C75.8074 58.6256 76.0931 58.6353 76.3776 58.6604C78.6368 58.8593 80.5993 59.9356 82.3973 61.1927L80.8986 63.3368C79.2674 62.1964 77.7025 61.4027 76.1483 61.2659C74.5941 61.1293 72.9444 61.563 70.8487 63.2772L69.1927 61.2523C69.4671 61.0277 69.7495 60.813 70.0392 60.6084L66.7341 59.7121C62.5639 58.5809 58.4728 56.6701 55.8711 53.8968C54.5702 52.5102 53.6375 50.8652 53.4144 49.0123C53.3317 48.3254 53.3519 47.6196 53.4755 46.9046C43.5327 51.085 36.4471 61.5922 36.4471 73.9847C36.4471 90.0813 48.4007 103 63.0444 103C77.688 103 89.6417 90.0813 89.6417 73.9847C89.6417 59.8688 80.4486 48.1974 68.3103 45.5387L68.3105 45.5385ZM50.5669 58.6314C52.5831 58.6723 54.729 59.4797 56.896 61.2523L55.24 63.2772C53.1444 61.563 51.4946 61.1292 49.9405 61.2659C48.3864 61.4027 46.8215 62.1964 45.1902 63.3368L43.6914 61.1927C45.4894 59.9356 47.452 58.8593 49.7111 58.6603C49.9957 58.6352 50.2813 58.6256 50.5669 58.6314ZM50.2544 64.445C54.1721 64.445 57.3761 67.649 57.3761 71.5667C57.3761 75.4843 54.1721 78.688 50.2544 78.688C46.4195 78.688 43.2704 75.6177 43.139 71.8134C43.1305 71.6491 43.1305 71.4844 43.139 71.32C43.2704 67.5157 46.4195 64.445 50.2544 64.445ZM75.8343 64.445C79.752 64.445 82.956 67.649 82.956 71.5667C82.956 75.4843 79.752 78.688 75.8343 78.688C71.9994 78.688 68.8503 75.6177 68.7189 71.8134C68.7104 71.6491 68.7104 71.4844 68.7189 71.32C68.8503 67.5157 71.9994 64.445 75.8343 64.445ZM50.2544 67.0608C50.0541 67.0608 49.8576 67.0749 49.6645 67.0998C51.4491 67.8006 52.7252 69.5444 52.7252 71.5667C52.7252 73.5889 51.4491 75.3324 49.6645 76.0334C49.8576 76.0581 50.0541 76.0722 50.2544 76.0722C52.7583 76.0722 54.76 74.0706 54.76 71.5667C54.76 69.0627 52.7583 67.0608 50.2544 67.0608ZM75.8343 67.0608C75.634 67.0608 75.4375 67.0749 75.2444 67.0998C77.029 67.8006 78.3051 69.5444 78.3051 71.5667C78.3051 73.5889 77.029 75.3324 75.2444 76.0334C75.4375 76.0581 75.634 76.0722 75.8343 76.0722C78.3382 76.0722 80.3399 74.0706 80.3399 71.5667C80.3399 69.0627 78.3382 67.0608 75.8343 67.0608ZM34.4492 67.4977C32.3858 67.8538 31.0387 68.5747 30.2249 69.4082C29.067 70.5945 28.7834 72.1015 29.1508 73.8161C29.6858 76.313 31.7894 78.9357 34.3941 80.1784C34.0189 78.1352 33.8304 76.0621 33.831 73.9847C33.831 71.7629 34.0446 69.5932 34.4492 67.4977ZM91.6395 67.4977C92.0516 69.6354 92.2586 71.8076 92.2578 73.9847C92.2578 76.103 92.0632 78.1738 91.6946 80.1784C94.2994 78.9357 96.4029 76.313 96.9379 73.8161C97.3053 72.1015 97.0218 70.5945 95.8638 69.4082C95.0501 68.5747 93.7029 67.8538 91.6395 67.4977ZM47.929 69.3863C46.7094 69.3863 45.7489 70.347 45.7489 71.5667C45.7489 72.0409 45.8954 72.4747 46.1446 72.8294L49.5667 70.1188C49.1696 69.6684 48.5879 69.3863 47.929 69.3863ZM73.5089 69.3863C72.2893 69.3863 71.3288 70.347 71.3288 71.5667C71.3288 72.0409 71.4753 72.4747 71.7245 72.8294L75.1466 70.1188C74.7495 69.6684 74.1679 69.3863 73.5089 69.3863ZM59.2059 76.646C60.3687 77.5675 61.2285 78.2424 61.8552 78.6398C62.482 79.0373 62.8086 79.1276 63.0444 79.1276C63.2803 79.1276 63.6068 79.0373 64.2335 78.6398C64.8603 78.2424 65.7201 77.5675 66.8828 76.646L68.5077 78.6957C67.345 79.6172 66.4607 80.3247 65.634 80.849C64.8075 81.3731 63.9714 81.7434 63.0444 81.7434C62.1175 81.7434 61.2814 81.3731 60.4547 80.849C59.628 80.3247 58.7437 79.6174 57.581 78.6957L59.2059 76.646ZM47.2309 84.0729H78.8578L78.2276 85.8237C78.2276 85.8237 77.0165 89.2076 74.5703 92.6058C72.1241 96.004 68.3009 99.6104 63.0444 99.6104C57.7878 99.6104 53.9647 96.0042 51.5184 92.606C49.0724 89.2079 47.8611 85.8238 47.8611 85.8238L47.2309 84.0729ZM57.5214 86.6819V91.3328H62.1723V86.6819H57.5214Z" fill="white"/>
</g>
<defs>
<clipPath id="clip0_44_21">
<rect width="133.062" height="200" fill="white"/>
</clipPath>
</defs>
</svg>
