<svg width="134" height="200" viewBox="0 0 134 200" fill="none" xmlns="http://www.w3.org/2000/svg">
<g clip-path="url(#clip0_44_36)">
<path d="M133.062 50.6612L66.531 0L0 50.0509L25.4324 131.027H47.8128L38.0468 141.404L66.531 200L95.0153 141.607L85.0458 131.027H107.63L133.062 50.6612Z" fill="black"/>
<path d="M56.4079 45.9552L55.5156 45.3956C53.7693 44.3249 51.5895 43.7028 49.7157 44.2866C47.7016 44.9138 46.0955 46.4651 45.2542 48.7953L44.056 48.1783C41.9909 47.1152 40.91 47.0987 40.0138 47.5015C39.2987 47.8214 38.553 48.5913 37.7079 49.7156L48.2115 57.8369C49.8559 58.3722 52.2651 58.3595 54.6743 57.7349C57.0963 57.1103 59.5055 55.8865 61.2646 54.2422L65.229 44.4396C61.7362 41.6798 58.5495 43.2783 56.4079 45.9552ZM63.1767 55.7081C61.0097 57.9006 57.7846 59.3793 55.2734 60.0421C54.3939 60.2716 53.5143 60.4373 52.6603 60.5265C52.1886 61.3041 51.7935 62.0944 51.4875 62.8847C52.0994 65.995 53.2466 68.5445 54.9675 70.635L53.1319 72.1646C52.0739 70.8899 51.1306 69.5132 50.4168 67.9836C50.3021 70.9409 50.9649 74.0002 52.0484 77.187L49.7922 77.9519C47.8036 72.1392 47.128 66.1862 49.9196 60.5775C48.9764 60.501 48.0841 60.3225 47.2555 60.0294L47.2172 60.0166C46.6691 60.5392 46.1465 61.0874 45.6493 61.661C41.6251 66.3265 39.4083 72.5343 40.5683 77.3655C41.1891 79.9532 42.3019 82.4006 43.903 84.4911C46.2485 84.4402 48.4665 84.4911 50.4805 85.256C51.4366 85.154 52.4181 85.0903 53.4379 85.0903C57.0708 85.0903 60.3596 85.7659 62.8453 86.9386C63.814 87.3975 64.6936 87.9456 65.3947 88.5702C65.3947 87.8946 65.4967 87.168 65.7006 86.6327C64.5661 85.5619 63.8523 84.2617 63.8523 82.783C63.8523 80.7307 65.2162 79.0354 67.192 77.8116C67.192 77.2253 67.3068 76.6644 67.5107 76.129C66.2232 75.02 65.3947 73.6433 65.3947 72.0372C65.3947 71.0302 65.7261 70.1124 66.287 69.2838C65.7261 68.468 65.3947 67.5502 65.3947 66.5432C65.3947 66.046 65.4712 65.5871 65.6114 65.141C64.3749 64.0447 63.5973 62.6935 63.5973 61.1384C63.5973 59.596 64.3622 58.2575 65.5859 57.174C64.8338 56.5876 64.0307 56.0905 63.1767 55.7081ZM77.377 56.0013C74.0627 56.0013 71.0672 56.7024 69.0149 57.7349C66.9498 58.7674 65.9811 60.0421 65.9811 61.1384C65.9811 62.2474 66.9498 63.5221 69.0149 64.5546C71.0672 65.5871 74.0627 66.2882 77.377 66.2882C78.8174 66.2882 80.1814 66.148 81.4433 65.9185V63.7515C83.2152 63.4838 84.6811 62.9994 85.6244 62.3748V64.6183C87.2178 64.1594 88.7475 62.4641 88.7857 61.1384C88.7857 60.0421 87.8169 58.7674 85.7519 57.7349C83.6868 56.7024 80.704 56.0013 77.377 56.0013ZM89.678 64.6311C89.2573 65.0772 88.7602 65.4979 88.1993 65.8803L88.2248 69.577C89.831 68.6209 90.5831 67.5119 90.5831 66.5432C90.5831 65.9313 90.2899 65.2684 89.678 64.6311ZM67.7784 66.5941C67.8166 67.6904 68.7854 68.9269 70.8122 69.9466C72.8773 70.9919 75.8601 71.6803 79.1871 71.6803C81.2649 71.6803 83.2152 71.3998 84.8851 70.9409L84.9743 67.4737C82.7818 68.2385 80.1814 68.6592 77.377 68.6592C73.7441 68.6592 70.4426 67.9326 67.9441 66.6834C67.8804 66.6579 67.8294 66.6196 67.7784 66.5941ZM68.0333 71.0302C67.8549 71.3743 67.7784 71.7185 67.7784 72.0372C67.7784 73.1462 68.7472 74.4209 70.8122 75.4534C72.8773 76.4859 75.8601 77.1743 79.1871 77.1743C80.8697 77.1743 82.4631 77.0086 83.9035 76.6899V73.6306C82.4249 73.911 80.8442 74.0512 79.1871 74.0512C75.5414 74.0512 72.2399 73.3374 69.7415 72.0754C69.1169 71.7695 68.5432 71.4126 68.0333 71.0302ZM90.3281 71.0302C89.5505 71.5783 88.8749 71.9862 88.0846 72.3304V75.173C89.78 74.1914 90.5831 73.0442 90.5831 72.0372C90.5831 71.7185 90.5066 71.3743 90.3281 71.0302ZM91.2841 75.7211C91.0292 75.976 90.7488 76.2182 90.4428 76.4604V80.5905C91.7558 79.6982 92.3931 78.7167 92.3931 77.8244C92.3931 77.1488 92.0235 76.4222 91.2841 75.7211ZM69.6012 77.5057C69.5885 77.6204 69.5757 77.7224 69.5757 77.8244C69.5757 78.9334 70.5445 80.1954 72.6096 81.2279C74.6746 82.2731 77.6702 82.9615 80.9844 82.9615C82.8838 82.9615 84.6939 82.732 86.2618 82.3496V78.5382C84.184 79.2011 81.7748 79.558 79.1871 79.558C75.5414 79.558 72.2399 78.8314 69.7415 77.5822C69.6905 77.5567 69.6522 77.5312 69.6012 77.5057ZM67.8676 80.2336C66.7586 81.0622 66.236 81.9672 66.236 82.783C66.236 83.892 67.2048 85.154 69.2698 86.1993C71.3349 87.2318 74.3177 87.9201 77.6447 87.9201C78.8557 87.9201 80.0284 87.8309 81.1247 87.6652V85.3452H80.9844C77.3388 85.3452 74.0372 84.6186 71.5388 83.3566C69.9454 82.5663 68.6197 81.5083 67.8676 80.2336ZM88.5817 84.1342C87.5747 84.4911 86.4785 84.7843 85.3057 84.9755V86.5179C85.5479 86.416 85.7901 86.314 86.0196 86.1993C87.2688 85.5619 88.1101 84.8481 88.5817 84.1342ZM89.7545 86.4542C89.2701 86.9386 88.7092 87.372 88.0846 87.7672V91.4128C89.78 90.4441 90.5831 89.2968 90.5831 88.2898C90.5831 87.7034 90.3154 87.0661 89.7545 86.4542ZM45.3052 86.8111C44.005 86.8239 42.6028 86.9896 41.1496 87.3338C38.242 88.0094 35.7423 89.2458 34.1106 90.6098C32.479 91.961 31.8416 93.3377 32.0328 94.3192C32.2241 95.3007 33.2311 96.2058 35.1941 96.7284C37.1508 97.2383 39.8876 97.2638 42.794 96.5882C43.9667 96.3078 45.063 95.9508 46.07 95.5302V92.8915C47.9311 92.0629 49.3205 91.0687 49.9451 90.0999V93.2102C51.4875 91.8845 52.0867 90.5588 51.9082 89.59C51.7297 88.6085 50.71 87.7034 48.7469 87.1935C47.7654 86.9386 46.5926 86.7984 45.3052 86.8111ZM53.5398 87.474C53.884 87.9711 54.1262 88.532 54.2537 89.1566C54.3939 89.9214 54.3302 90.6608 54.1007 91.3873C55.3627 91.7188 56.5099 92.1649 57.5042 92.7258C58.0651 93.0317 58.5877 93.4014 59.0466 93.7838C60.1938 93.5161 61.1626 93.1337 61.851 92.6748V95.3007C63.9033 94.3319 64.8466 93.1465 64.8466 92.2032C64.8466 91.2471 63.9033 90.0616 61.8382 89.0929C59.7859 88.1368 56.8286 87.4867 53.5398 87.474ZM67.7911 88.1113C67.7784 88.1623 67.7784 88.2261 67.7784 88.2898C67.7784 89.3988 68.7472 90.6608 70.8122 91.706C72.8773 92.7385 75.8601 93.4269 79.1871 93.4269C80.8697 93.4269 82.4631 93.2484 83.9035 92.9425V89.5135C82.017 90.0234 79.8882 90.3038 77.6447 90.3038C73.999 90.3038 70.6975 89.5773 68.1991 88.328C68.0588 88.2515 67.9186 88.1751 67.7911 88.1113ZM68.1481 92.866C67.8931 93.2867 67.7784 93.6946 67.7784 94.0897C67.7784 95.1987 68.7472 96.4607 70.8122 97.506C72.8773 98.5385 75.8601 99.2268 79.1871 99.2268C80.8697 99.2268 82.4631 99.0484 83.9035 98.7425V95.3772C82.4249 95.6576 80.8442 95.8106 79.1871 95.8106C75.5414 95.8106 72.2399 95.084 69.7415 93.8221C69.1678 93.5416 68.6325 93.2229 68.1481 92.866ZM90.2134 92.866C89.474 93.3632 88.8239 93.7583 88.0846 94.077V97.2128C89.78 96.244 90.5831 95.0968 90.5831 94.0897C90.5831 93.6946 90.4683 93.2867 90.2134 92.866ZM52.9152 93.5544C52.4691 94.1152 51.9464 94.6506 51.3601 95.135C49.3715 96.8049 46.5671 98.1561 43.3294 98.9082C42.1745 99.1759 41.0272 99.3416 39.9259 99.4308C40.3338 100.106 41.0515 100.769 42.1018 101.356C43.8393 102.337 46.3887 103 49.2185 103C50.506 103 51.7297 102.86 52.8515 102.618V99.9662C54.6106 99.6985 56.0893 99.2141 57.0326 98.5895V100.935C58.3073 100.043 58.9191 99.0356 58.9191 98.0796C58.9191 96.9706 58.0906 95.7851 56.3442 94.8036C55.4009 94.281 54.2282 93.8475 52.9152 93.5544Z" fill="white"/>
</g>
<defs>
<clipPath id="clip0_44_36">
<rect width="133.062" height="200" fill="white"/>
</clipPath>
</defs>
</svg>
