<svg width="134" height="200" viewBox="0 0 134 200" fill="none" xmlns="http://www.w3.org/2000/svg">
<g clip-path="url(#clip0_44_30)">
<path d="M133.062 50.6612L66.531 0L0 50.0509L25.4324 131.027H47.8128L38.0468 141.404L66.531 200L95.0153 141.607L85.0458 131.027H107.63L133.062 50.6612Z" fill="black"/>
<path d="M83.5957 43C80.8575 46.3965 77.1683 49.5916 72.7189 52.1596C67.9638 54.9038 63.0137 56.5064 58.4563 57.0805C58.7211 57.8644 59.0143 58.6514 59.3371 59.4401C61.4071 59.4759 63.1339 59.3839 64.0442 59.2461L65.2686 59.0483L66.3593 58.8828L66.3877 60.1998C66.3657 60.9978 66.3186 61.8043 66.2462 62.6201L73.5673 63.7635C73.6785 63.7512 73.7888 63.7441 73.8987 63.7432C75.3452 63.7284 76.6707 64.6857 77.0622 66.1471C77.1472 66.4636 77.1815 66.781 77.1715 67.0926C77.9436 66.8243 78.6911 66.536 79.4057 66.2238L80.6462 65.6823L80.9453 67.0037C81.3956 68.9829 81.7247 71.0615 81.8988 73.2177C86.1139 71.0838 90.0118 68.223 93.1875 64.5757C92.7712 59.8268 91.0989 54.4857 88.1289 49.3433C88.0339 49.1789 87.9388 49.0168 87.8419 48.8546L84.2786 58.0827C84.945 58.1813 85.5874 58.4911 86.1006 59.0041C87.3689 60.2721 87.3693 62.3256 86.1006 63.594C84.832 64.8623 82.7749 64.8619 81.5068 63.594C80.3613 62.4487 80.254 60.6616 81.1794 59.392L86.2138 46.3536C85.3799 45.1667 84.5052 44.0482 83.5957 43ZM36.149 54.39C35.0552 56.6362 34.1114 59.0702 33.4097 61.6868C31.5857 68.4898 31.6048 75.0921 33.0462 80.2322C34.7657 79.8954 36.4649 79.7202 38.1289 79.7112C38.3687 79.7096 38.6057 79.7138 38.8439 79.7189C41.5405 79.781 44.1423 80.279 46.5976 81.2058C46.4579 79.7634 46.3835 78.2872 46.3835 76.7817C46.3835 73.1873 46.7888 69.7511 47.5471 66.5757L47.8664 65.2302L49.1148 65.82C52.9246 67.6275 57.6731 68.8485 62.856 69.0808C63.52 66.4884 63.9149 63.9375 64.0724 61.4848C59.5215 62.1093 54.3254 61.8424 49.0218 60.422C44.0618 59.0939 39.6721 56.9596 36.1492 54.3898L36.149 54.39ZM65.9631 65.0202C65.7647 66.3716 65.4957 67.7392 65.1592 69.1171C67.2114 69.0921 69.2042 68.911 71.1066 68.6038C70.9701 68.3659 70.8616 68.1096 70.7873 67.8322C70.5992 67.1299 70.658 66.4197 70.9086 65.7919L65.9631 65.0201V65.0202ZM43.022 65.0767L43.5593 67.4324L40.7674 68.0666C41.8987 68.7355 42.4938 70.0969 42.1371 71.4282C41.7079 73.0306 40.0626 73.9828 38.4604 73.5535C36.858 73.1243 35.9056 71.4751 36.3348 69.8725C36.4222 69.5471 36.5619 69.2494 36.739 68.9838L34.0159 69.6018L33.4825 67.2464L43.0217 65.0768L43.022 65.0767ZM93.2643 68.0262C89.9634 71.318 86.1136 73.9019 82.028 75.8484C82.0344 76.1584 82.04 76.469 82.04 76.7817C82.04 77.9696 81.9942 79.1389 81.9068 80.2887C84.0576 80.4607 86.05 80.0689 87.7695 79.0768C91.1214 77.1423 93.0198 73.1689 93.2644 68.0261L93.2643 68.0262ZM49.4543 68.4141C48.9332 70.9991 48.6359 73.7552 48.626 76.6362L48.6422 76.592C52.5944 77.9074 56.7388 78.8639 60.9573 79.3556L61.927 79.4688L62.0198 80.4385L62.7551 88.2122L60.347 88.4384L60.0199 84.9799C59.432 85.2223 58.7624 85.2824 58.1006 85.105C56.4983 84.6758 55.5458 83.0309 55.9753 81.4285C56.0121 81.2914 56.0589 81.1595 56.1127 81.0324C53.587 80.5506 51.1044 79.9215 48.6906 79.1538C49.0383 85.5693 50.7791 91.3125 53.3572 95.5295C56.249 100.26 60.0973 103 64.2137 103C68.3301 103 72.1783 100.26 75.0704 95.5295C77.5962 91.3973 79.3171 85.801 79.7126 79.5417C77.6733 80.1438 75.589 80.6474 73.4742 81.0487C73.7217 81.6396 73.7865 82.3132 73.6078 82.9801C73.1783 84.5825 71.5333 85.5347 69.931 85.1053C69.8363 85.0801 69.7461 85.0501 69.6562 85.0166L69.333 88.4389L66.9289 88.2124L67.6644 80.4387L67.7575 79.469L68.7269 79.3559C72.508 78.9154 76.2252 78.0996 79.8017 76.9883V76.7822C79.8017 73.993 79.5082 71.3222 79.0177 68.7984C74.845 70.4136 69.9267 71.3635 64.6542 71.3635C59.0183 71.3635 53.7954 70.2441 49.4543 68.414V68.4141ZM38.1412 82.115C36.7358 82.1282 35.2974 82.2727 33.8261 82.5433C35.4674 86.6316 38.1078 89.4049 41.4543 90.3009C43.6394 90.8857 45.9661 90.6288 48.2826 89.6221C47.7161 87.8262 47.2646 85.9236 46.9452 83.9371C44.2152 82.6929 41.2649 82.0856 38.1412 82.1149V82.115ZM55.9189 92.4868H72.8321C67.6497 98.2525 60.8566 98.0263 55.9189 92.4868Z" fill="white"/>
</g>
<defs>
<clipPath id="clip0_44_30">
<rect width="133.062" height="200" fill="white"/>
</clipPath>
</defs>
</svg>
