<svg width="134" height="200" viewBox="0 0 134 200" fill="none" xmlns="http://www.w3.org/2000/svg">
<g clip-path="url(#clip0_52_2)">
<path d="M133.062 50.6612L66.531 0L0 50.0509L25.4324 131.027H47.8128L38.0468 141.404L66.531 200L95.0153 141.607L85.0458 131.027H107.63L133.062 50.6612Z" fill="black"/>
<g clip-path="url(#clip1_52_2)">
<path d="M93.25 43H40.75C38.6789 43 37 44.6789 37 46.75V99.25C37 101.321 38.6789 103 40.75 103H93.25C95.3211 103 97 101.321 97 99.25V46.75C97 44.6789 95.3211 43 93.25 43Z" fill="black"/>
<path d="M66.2127 45.2486V45.2779C64.09 49.8054 60.9317 53.7576 57.1089 57.3409L61.5292 56.8794L55.5122 64.5003L58.4196 63.5737L54.4793 70.0044L56.4164 71.1579L48.7699 81.9575L52.9998 81.9795L46.9429 91.7757L54.3915 90.8235L55.7978 94.5845L63.5835 91.6217L62.2541 100.806H68.4578L67.6923 92.8121L72.1675 94.7347L73.3613 91.8304L78.5507 94.2879L85.1608 91.8562L80.8173 84.3452L79.3599 84.0778L80.1544 86.0922L81.0736 88.4249L78.7371 87.5131L72.7716 85.1802V89.3697L71.1127 88.3626L62.9828 83.4408L60.4521 85.931L58.3392 88.0111L58.5918 85.0556L58.8408 82.1663L60.9722 82.3492L62.0524 81.2837L62.6606 80.6867L63.3893 81.1262L70.5817 85.4804V81.9758L72.0758 82.5582L77.199 84.5612L76.6023 83.0488L75.8808 81.2141L77.8183 81.5692L83.1465 82.5471L79.1001 77.9838L76.3315 79.6283L75.5478 80.0933L74.9472 79.4049L73.2737 77.4787L73.2993 77.6213L71.1423 77.9987L70.4427 73.9776L69.7689 70.1031L72.347 73.0732L76.0019 77.2773L81.1472 74.2269C78.2562 71.9367 76.5175 70.2577 75.3279 68.5065L75.4232 69.9896L75.654 73.6224L73.4568 70.722L69.4173 65.3974L66.8099 70.8833L65.1876 74.2964L64.7372 70.5426L64.3271 67.1626L66.2644 66.932L68.2125 62.8339L68.9853 61.2079L70.0728 62.64L73.0024 66.4997L72.9146 65.1485L72.8084 63.4751L74.3869 64.0535L77.0561 65.0313L73.9946 60.9115L67.4505 57.5277L66.403 59.897L65.2715 62.4677L64.3668 59.809L63.4916 57.2455L65.4803 56.5681L65.916 55.5793L66.3847 54.51L67.4212 55.0482L73.2073 58.04L75.137 57.3882C70.0487 53.3675 67.5632 49.3156 66.2125 45.2484L66.2127 45.2486Z" fill="white"/>
</g>
</g>
<defs>
<clipPath id="clip0_52_2">
<rect width="133.062" height="200" fill="white"/>
</clipPath>
<clipPath id="clip1_52_2">
<rect width="60" height="60" fill="white" transform="translate(37 43)"/>
</clipPath>
</defs>
</svg>
