<svg width="134" height="200" viewBox="0 0 134 200" fill="none" xmlns="http://www.w3.org/2000/svg">
<g clip-path="url(#clip0_44_2)">
<path d="M133.062 50.6612L66.531 0L0 50.0509L25.4324 131.027H47.8128L38.0468 141.404L66.531 200L95.0153 141.607L85.0458 131.027H107.63L133.062 50.6612Z" fill="black"/>
<path d="M71.296 43C72.9657 47.2063 72.9656 47.2065 70.6024 51.0661C74.8087 49.3964 74.809 49.3962 78.6685 51.7593C76.9988 47.553 76.9986 47.5531 79.3617 43.6934C75.1554 45.3633 75.1556 45.3632 71.296 43ZM45.0543 45.2061C43.5544 47.8787 43.5544 47.8787 40.5164 48.2822C43.189 49.7823 43.189 49.7821 43.5926 52.8202C45.0925 50.1476 45.0925 50.1476 48.1304 49.744C45.4578 48.2441 45.4578 48.2441 45.0543 45.2061ZM54.7781 52.3429C54.6571 58.7688 54.6574 58.7688 49.4441 62.5278C55.87 62.6484 55.8701 62.6484 59.6291 67.8616C59.7497 61.4356 59.7497 61.4356 64.9629 57.6767C58.5369 57.556 58.5369 57.556 54.7779 52.3429H54.7781ZM79.0624 59.4417C79.0566 62.5064 79.0563 62.5062 76.6011 64.3403C79.6658 64.3463 79.6658 64.3461 81.4999 66.8014C81.5059 63.7368 81.5058 63.7369 83.961 61.9028C80.8964 61.8968 80.8966 61.897 79.0624 59.4417ZM55.6788 70.0966C55.5275 70.0996 55.379 70.1055 55.2352 70.1136C52.8737 70.2488 49.9169 71.1826 45.3977 72.9788L40.3528 95.4524C50.3227 92.8187 57.2434 92.6694 62.0729 94.8662V71.8419C59.7768 70.7224 58.0348 70.1399 56.1399 70.097C55.9863 70.0938 55.8326 70.0937 55.6789 70.0967L55.6788 70.0966ZM71.2631 71.5472C70.8927 71.5439 70.525 71.5486 70.1816 71.5597C68.5544 71.6126 66.6708 71.841 64.3587 72.1341V94.6347C69.8926 93.6408 77.9314 94.1012 86.1111 95.5958L81.058 73.0873C76.4973 72.0241 73.8698 71.5744 71.2631 71.5473V71.5472ZM71.5538 73.7003C73.9532 73.7262 76.235 74.0519 78.376 74.338L78.9396 76.4368C75.9189 75.9605 70.5602 75.8136 67.1939 76.3123L67.1131 74.0506C68.6322 73.777 70.1141 73.6848 71.5538 73.7003ZM39.7361 74.292L38.3875 80.1357H41.448L42.7597 74.292H39.7361ZM83.6718 74.292L88.7201 96.7794L89.0045 98.0463L91.8741 98.027L86.6845 74.292H83.6718ZM73.655 81.6366C75.8135 81.6399 77.9319 81.7371 79.8978 81.919L80.3454 84.1005C76.1986 83.7093 71.1259 83.7335 67.2624 84.1005L67.1723 81.919C69.2979 81.7242 71.4963 81.6334 73.655 81.6366ZM37.8601 82.4216L36.9805 86.2329H40.0792L40.9347 82.4216H37.8601ZM72.7181 85.8823C73.3096 85.885 73.9232 85.8931 74.5875 85.9081L74.912 88.1308C72.3753 88.0709 68.9272 88.2019 67.325 88.2642L67.2361 85.9796C69.3705 85.917 70.9439 85.8744 72.7181 85.8823ZM77.9867 85.9391C79.0369 85.9444 80.1076 85.9815 81.0506 85.9478L81.3784 88.2013C80.2792 88.1616 78.2192 88.0958 77.3054 88.1375L76.9489 85.9483C77.2947 85.9398 77.6407 85.9367 77.9867 85.9391ZM36.4531 88.5188L34.1686 98.4177L37.3486 98.3961L39.5659 88.5188H36.4531ZM74.9627 90.0238C77.4534 90.0226 79.8735 90.1222 82.1331 90.3505L82.5137 92.991C78.1561 92.4519 71.6206 92.0133 67.385 92.579L67.3672 90.3024C69.9102 90.1272 72.4718 90.0251 74.9627 90.0238ZM53.7995 95.6193C49.9745 95.6307 45.1724 96.4132 39.1397 98.1293L38.2226 98.3901L62.0728 98.2288V97.4226C60.0104 96.2532 57.3195 95.6089 53.7996 95.6193H53.7995ZM70.873 96.4036C68.3795 96.4121 66.1588 96.5864 64.3587 96.9348V98.2132L86.9177 98.0604C81.2877 96.9636 75.595 96.3874 70.8731 96.4036H70.873ZM34 100.714V103H92.4317V100.714H34Z" fill="white"/>
</g>
<defs>
<clipPath id="clip0_44_2">
<rect width="133.062" height="200" fill="white"/>
</clipPath>
</defs>
</svg>
