<svg width="134" height="200" viewBox="0 0 134 200" fill="none" xmlns="http://www.w3.org/2000/svg">
<g clip-path="url(#clip0_61_73)">
<path d="M133.062 50.6612L66.531 0L0 50.0509L25.4324 131.027H47.8128L38.0468 141.404L66.531 200L95.0153 141.607L85.0458 131.027H107.63L133.062 50.6612Z" fill="black"/>
<g clip-path="url(#clip1_61_73)">
<path d="M93.25 43H40.75C38.6789 43 37 44.6789 37 46.75V99.25C37 101.321 38.6789 103 40.75 103H93.25C95.3211 103 97 101.321 97 99.25V46.75C97 44.6789 95.3211 43 93.25 43Z" fill="black"/>
<path d="M62.8192 51.5605C62.2159 51.5725 61.6187 51.6084 61.0286 51.6689C65.55 62.549 65.7782 69.2255 65.9444 74.4879C67.5457 74.4621 69.1468 74.3954 70.7473 74.2857C70.6457 64.098 66.373 54.9205 62.8192 51.5605ZM67.5706 51.9898C70.8087 53.541 73.7166 56.1582 76.0593 59.133L78.1929 57.6119C75.3156 54.8174 71.6563 52.8236 67.5706 51.9898ZM58.8796 52.0004C49.3966 53.959 42.2168 62.1658 41.8234 72.1375C49.1752 73.5859 56.5105 74.4531 63.8352 74.4965C63.6718 69.1609 63.4735 62.8656 58.8797 52.0004H58.8796ZM87.4813 53.7046C87.2582 53.6993 87.0439 53.7336 86.8412 53.8046C86.1925 54.0319 85.6694 54.6351 85.3807 55.6221C85.092 56.6095 85.0955 57.9265 85.5237 59.2534C85.952 60.5804 86.7128 61.6318 87.5152 62.2364C88.3177 62.8411 89.0841 62.9927 89.7328 62.7652C90.3816 62.5379 90.9045 61.9347 91.193 60.9474C91.4818 59.9602 91.4786 58.6431 91.0503 57.3162C90.8459 56.6827 90.5651 56.1129 90.2405 55.6237C90.0657 55.224 89.8088 54.9074 89.5203 54.736C89.3693 54.5857 89.2148 54.4506 89.0586 54.3329C88.507 53.9172 87.9725 53.7159 87.4812 53.7045L87.4813 53.7046ZM88.1616 54.7425C88.2943 54.7362 88.4296 54.7482 88.5659 54.7783C88.3544 54.9552 88.2051 55.2493 88.1426 55.6122C88.0802 55.975 88.1082 56.3851 88.2221 56.7752C88.3556 57.2309 88.5962 57.6245 88.8911 57.8693C89.1859 58.1142 89.5108 58.1902 89.7943 58.0806C90.011 57.9964 90.1915 57.8081 90.3118 57.5407C90.432 57.2733 90.4863 56.9395 90.4674 56.5837C90.5752 56.8112 90.6672 57.0513 90.7416 57.2992C90.8679 57.7256 90.9402 58.1679 90.9543 58.601C90.9683 59.0341 90.9239 59.4495 90.8235 59.8234C90.7231 60.1973 90.5687 60.5224 90.3692 60.7802C90.1697 61.038 89.9289 61.2234 89.6605 61.3258C89.1187 61.5324 88.4978 61.3887 87.9343 60.9261C87.3708 60.4635 86.9109 59.7199 86.6559 58.859C86.4008 57.9981 86.3713 57.0902 86.574 56.3352C86.7767 55.5801 87.1949 55.0397 87.7367 54.8328C87.873 54.7807 88.0153 54.7505 88.1616 54.7425ZM83.0964 56.7068L81.4945 57.8487C81.4602 60.1608 81.8905 61.58 82.5027 62.659C83.1066 63.7231 83.9453 64.5 84.8637 65.4173L86.7504 64.2911C86.5773 64.1875 86.4086 64.0748 86.2459 63.9522C85.0475 63.0489 84.0821 61.6532 83.5328 59.9514C83.1786 58.8537 83.0375 57.7487 83.0965 56.7067L83.0964 56.7068ZM79.4325 59.3189L71.8587 64.7181C72.4594 66.9998 72.9546 69.8041 73.0396 72.4751L82.9896 66.5361C82.1979 65.7591 81.349 64.9009 80.6679 63.7001C80.0269 62.5704 79.5743 61.1618 79.4324 59.3189H79.4325ZM84.1736 68.2857L81.5638 69.8433C81.8252 70.893 81.9734 71.88 81.9954 72.7687C82.8896 72.5862 83.7837 72.3899 84.6779 72.1762C84.6275 70.8442 84.4552 69.5441 84.1735 68.2855L84.1736 68.2857ZM41.8047 74.2649V77.7954C56.1106 81.2438 70.3894 81.2438 84.6953 77.7954V74.3267C70.3663 77.6658 56.0559 77.0334 41.8047 74.2649ZM41.8047 79.9656V98.3687C43.8763 98.7712 45.9466 99.1277 48.0156 99.4359V92.9219C48.5186 92.1602 49.4481 91.7852 50.4437 91.7658C51.8992 91.7372 53.4959 92.4678 54.1094 93.8594V100.194C64.3261 101.203 74.5162 100.847 84.6953 98.4119V79.9654C70.4069 83.3315 56.0931 83.3315 41.8047 79.9654V79.9656ZM80.4747 90.2465C81.2821 90.2481 82 90.6197 82 91.44V95.19L78.25 95.6588V91.9088C78.25 90.8541 79.4365 90.2444 80.4747 90.2465ZM70.9255 91.6273C71.8009 91.6275 72.625 92.043 72.625 92.9219V96.6719L68.875 96.9063V93.1563C68.875 92.1602 69.9332 91.627 70.9255 91.6273ZM61.375 92.2188C62.3125 92.2188 63.25 92.6875 63.25 93.625V97.375H59.5V93.625C59.5 92.6875 60.4375 92.2188 61.375 92.2188Z" fill="white"/>
</g>
</g>
<defs>
<clipPath id="clip0_61_73">
<rect width="133.062" height="200" fill="white"/>
</clipPath>
<clipPath id="clip1_61_73">
<rect width="60" height="60" fill="white" transform="translate(37 43)"/>
</clipPath>
</defs>
</svg>
