<svg width="324" height="304" viewBox="0 0 324 304" fill="none" xmlns="http://www.w3.org/2000/svg">
<path d="M60.075 0V76.95H80.325V0H60.075ZM243.675 0V76.95H263.925V0H243.675ZM0 7.425V21.5595C14.1075 25.8795 29.565 30.5235 29.565 30.5235L0 30.8678V50.625H47.925V7.425H0ZM92.475 7.425V50.625H231.525V34.7827L213.368 28.2353L231.525 25.1708V7.425H92.475ZM276.075 7.425V50.625H324V7.425H276.075ZM38.475 89.1V117.788L64.1925 124.132L38.475 129.668V175.905L68.3775 173.745L38.475 193.32V240.57C60.21 247.32 80.595 262.71 100.643 276.48C103.005 278.1 105.368 279.653 107.73 281.205L124.605 264.33L118.193 287.888C133.448 297.135 148.23 303.75 162 303.75C181.035 303.75 201.892 291.195 223.357 276.48C243.405 262.71 263.79 247.32 285.525 240.57V231.188L240.435 219.645L285.525 211.14V89.1H196.223L162 111.915L127.778 89.1H38.475Z" fill="black"/>
<path d="M175.16 140C177.943 147.011 177.943 147.011 174.004 153.444C181.015 150.661 181.015 150.66 187.448 154.599C184.665 147.588 184.664 147.589 188.603 141.156C181.592 143.939 181.593 143.939 175.16 140ZM131.424 143.677C128.924 148.131 128.924 148.131 123.861 148.804C128.315 151.304 128.315 151.304 128.988 156.367C131.488 151.913 131.488 151.913 136.551 151.24C132.096 148.74 132.096 148.74 131.424 143.677ZM147.63 155.571C147.429 166.281 147.429 166.281 138.74 172.546C149.45 172.747 149.45 172.747 155.715 181.436C155.916 170.726 155.916 170.726 164.605 164.461C153.895 164.26 153.895 164.26 147.63 155.571H147.63ZM188.104 167.403C188.094 172.511 188.094 172.51 184.002 175.567C189.11 175.577 189.11 175.577 192.167 179.669C192.176 174.561 192.176 174.562 196.268 171.505C191.161 171.495 191.161 171.495 188.104 167.403ZM149.131 185.161C148.879 185.166 148.632 185.176 148.392 185.189C144.456 185.415 139.528 186.971 131.996 189.965L123.588 227.421C140.204 223.031 151.739 222.782 159.788 226.444V188.07C155.961 186.204 153.058 185.233 149.9 185.162C149.644 185.156 149.388 185.156 149.132 185.161L149.131 185.161ZM175.105 187.579C174.488 187.573 173.875 187.581 173.303 187.599C170.591 187.688 167.451 188.068 163.598 188.557V226.058C172.821 224.401 186.219 225.169 199.852 227.66L191.43 190.145C183.829 188.373 179.45 187.624 175.105 187.579V187.579ZM175.59 191.167C179.589 191.21 183.392 191.753 186.96 192.23L187.899 195.728C182.865 194.934 173.934 194.689 168.323 195.521L168.189 191.751C170.72 191.295 173.19 191.141 175.59 191.167ZM122.56 192.153L120.312 201.893H125.413L127.599 192.153H122.56ZM195.786 192.153L204.2 229.632L204.674 231.744L209.457 231.712L200.807 192.153H195.786ZM179.092 204.394C182.689 204.4 186.22 204.562 189.496 204.865L190.242 208.501C183.331 207.849 174.876 207.889 168.437 208.501L168.287 204.865C171.83 204.54 175.494 204.389 179.092 204.394ZM119.433 205.703L117.968 212.055H123.132L124.558 205.703H119.433ZM177.53 211.47C178.516 211.475 179.539 211.488 180.646 211.513L181.187 215.218C176.959 215.118 171.212 215.337 168.542 215.44L168.394 211.633C171.951 211.528 174.573 211.457 177.53 211.47ZM186.311 211.565C188.062 211.574 189.846 211.636 191.418 211.58L191.964 215.335C190.132 215.269 186.699 215.16 185.176 215.229L184.581 211.581C185.158 211.566 185.734 211.561 186.311 211.565ZM117.089 215.865L113.281 232.363L118.581 232.327L122.276 215.865H117.089ZM181.271 218.373C185.422 218.371 189.456 218.537 193.222 218.918L193.856 223.318C186.594 222.42 175.701 221.689 168.642 222.632L168.612 218.837C172.85 218.545 177.12 218.375 181.271 218.373ZM145.999 227.699C139.624 227.718 131.621 229.022 121.566 231.882L120.038 232.317L159.788 232.048V230.704C156.351 228.755 151.866 227.681 145.999 227.699H145.999ZM174.455 229.006C170.299 229.02 166.598 229.311 163.598 229.891V232.022L201.196 231.767C191.813 229.939 182.325 228.979 174.455 229.006H174.455ZM113 236.189V240H210.386V236.189H113Z" fill="white"/>
</svg>
