<svg width="324" height="304" viewBox="0 0 324 304" fill="none" xmlns="http://www.w3.org/2000/svg">
<path d="M60.075 0V76.95H80.325V0H60.075ZM243.675 0V76.95H263.925V0H243.675ZM0 7.425V21.5595C14.1075 25.8795 29.565 30.5235 29.565 30.5235L0 30.8678V50.625H47.925V7.425H0ZM92.475 7.425V50.625H231.525V34.7827L213.368 28.2353L231.525 25.1708V7.425H92.475ZM276.075 7.425V50.625H324V7.425H276.075ZM38.475 89.1V117.788L64.1925 124.132L38.475 129.668V175.905L68.3775 173.745L38.475 193.32V240.57C60.21 247.32 80.595 262.71 100.643 276.48C103.005 278.1 105.368 279.653 107.73 281.205L124.605 264.33L118.193 287.888C133.448 297.135 148.23 303.75 162 303.75C181.035 303.75 201.892 291.195 223.357 276.48C243.405 262.71 263.79 247.32 285.525 240.57V231.188L240.435 219.645L285.525 211.14V89.1H196.223L162 111.915L127.778 89.1H38.475Z" fill="black"/>
<path d="M132.87 140C119.026 144.453 106.682 152.866 100.78 164.129C104.568 163.874 103.749 168.202 103.749 172.532H99.9659C100.05 178.146 101.221 178.845 101.221 178.845C103.694 178.845 103.694 183.334 103.694 187.824H98.9678L96 233.284C96 234.056 96.9833 234.761 98.766 235.4C98.8278 228.206 99.1777 222.059 101.221 222.059C103.383 222.059 103.655 228.926 103.689 236.655C105.595 237.021 107.818 237.357 110.295 237.663C110.344 229.982 110.716 223.182 113.585 223.182C116.54 223.182 116.845 230.396 116.877 238.354C119.468 238.587 122.222 238.797 125.131 238.98C125.167 230.996 125.516 223.743 128.972 223.743C132.487 223.743 132.787 231.248 132.814 239.393C135.145 239.499 137.532 239.593 139.969 239.672C140.006 231.637 140.388 224.304 144.359 224.304C148.367 224.304 149.201 226.549 149.232 234.671C156.977 240.338 155.971 238.698 157.005 239.998C157.037 231.836 157.417 224.304 161.944 224.304C166.472 224.304 166.851 231.837 166.884 240C169.655 239.981 172.411 239.946 175.139 239.895C175.171 231.773 175.522 224.304 179.53 224.304C183.5 224.304 183.882 231.636 183.919 239.671C185.845 239.609 187.771 239.538 189.697 239.456L180.016 217.773L171.458 217.045L164.571 185.327L154.672 186.158L151.018 171.372L146.542 170.719L132.87 140ZM129.028 152.889C132.875 152.889 132.875 157.379 132.875 161.869L125.181 164.114C125.181 159.624 125.181 152.889 129.028 152.889ZM113.641 157.379C116.938 157.379 116.938 161.869 116.938 166.359L110.344 167.481C110.344 162.992 110.344 157.379 113.641 157.379ZM144.359 174.355C148.755 174.355 148.755 178.845 148.755 183.334L139.963 183.896C139.963 179.406 139.963 174.355 144.359 174.355ZM128.972 175.477C132.819 175.477 132.819 179.967 132.819 184.457L125.126 185.018C125.126 180.528 125.126 175.477 128.972 175.477ZM113.585 177.161C116.882 177.161 116.882 181.651 116.882 186.141L110.288 187.263C110.288 182.773 110.288 177.161 113.585 177.161ZM169.518 184.779L175.134 210.644C175.134 203.974 175.175 197.365 179.53 197.365C183.926 197.365 183.926 204.1 183.926 210.835C183.522 212.438 183.494 212.565 183.314 212.985L191.363 231.013C191.759 226.749 192.694 223.743 194.917 223.743C198.373 223.743 198.722 230.996 198.757 238.98C201.462 238.809 204.03 238.615 206.462 238.402C206.493 230.424 206.794 223.182 209.754 223.182C212.631 223.182 212.998 230.02 213.044 237.729C215.986 237.375 218.591 236.982 220.751 236.547C220.787 228.863 221.066 222.059 223.218 222.059C225.241 222.059 225.603 228.088 225.67 235.191C227.104 234.608 227.889 233.973 227.889 233.284L225.36 194.54C222.305 191.734 218.038 189.805 212.973 188.453L207.391 192.383L198.9 191.595L193.091 185.662C185.493 185.18 177.409 185.049 169.518 184.779ZM144.359 197.365C148.755 197.365 148.755 204.1 148.755 210.835H139.963C139.963 204.1 139.963 197.365 144.359 197.365ZM161.944 197.365C166.89 197.365 166.89 204.1 166.89 210.835H156.999C156.999 204.1 156.999 197.365 161.944 197.365ZM128.972 197.926C132.819 197.926 132.819 204.661 132.819 211.396H125.126C125.126 204.661 125.126 197.926 128.972 197.926ZM194.917 197.926C198.763 197.926 198.763 204.661 198.763 211.396H191.07C191.07 204.661 191.07 197.926 194.917 197.926ZM113.585 198.488C116.882 198.488 116.882 204.661 116.882 211.396L110.288 211.957C110.288 205.222 110.288 198.488 113.585 198.488ZM209.754 198.488C213.051 198.488 213.051 205.222 213.051 211.957L206.457 211.396C206.457 204.661 206.457 198.488 209.754 198.488ZM102.343 199.049C104.816 199.049 104.816 205.222 104.816 211.957L99.8702 212.518C99.8702 205.784 99.8705 199.049 102.343 199.049ZM222.095 199.049C224.568 199.049 224.568 205.784 224.568 212.518L219.622 211.957C219.622 205.222 219.622 199.049 222.095 199.049H222.095Z" fill="white"/>
</svg>
