<svg width="324" height="304" viewBox="0 0 324 304" fill="none" xmlns="http://www.w3.org/2000/svg">
<path d="M60.075 0V76.95H80.325V0H60.075ZM243.675 0V76.95H263.925V0H243.675ZM0 7.425V21.5595C14.1075 25.8795 29.565 30.5235 29.565 30.5235L0 30.8678V50.625H47.925V7.425H0ZM92.475 7.425V50.625H231.525V34.7827L213.368 28.2353L231.525 25.1708V7.425H92.475ZM276.075 7.425V50.625H324V7.425H276.075ZM38.475 89.1V117.788L64.1925 124.132L38.475 129.668V175.905L68.3775 173.745L38.475 193.32V240.57C60.21 247.32 80.595 262.71 100.643 276.48C103.005 278.1 105.368 279.653 107.73 281.205L124.605 264.33L118.193 287.888C133.448 297.135 148.23 303.75 162 303.75C181.035 303.75 201.892 291.195 223.357 276.48C243.405 262.71 263.79 247.32 285.525 240.57V231.188L240.435 219.645L285.525 211.14V89.1H196.223L162 111.915L127.778 89.1H38.475Z" fill="black"/>
<path d="M152.68 144.925L151.193 143.993C148.282 142.208 144.649 141.171 141.526 142.144C138.169 143.19 135.492 145.775 134.09 149.659L132.093 148.631C128.652 146.859 126.85 146.831 125.356 147.502C124.165 148.036 122.922 149.319 121.513 151.193L139.019 164.728C141.76 165.62 145.775 165.599 149.791 164.558C153.827 163.517 157.842 161.478 160.774 158.737L167.382 142.399C161.56 137.8 156.249 140.464 152.68 144.925ZM163.961 161.18C160.349 164.834 154.974 167.299 150.789 168.404C149.323 168.786 147.857 169.062 146.434 169.211C145.648 170.507 144.989 171.824 144.479 173.141C145.499 178.325 147.411 182.574 150.279 186.058L147.22 188.608C145.457 186.483 143.884 184.189 142.695 181.639C142.503 186.568 143.608 191.667 145.414 196.978L141.654 198.253C138.339 188.565 137.213 178.644 141.866 169.296C140.294 169.168 138.807 168.871 137.426 168.382L137.362 168.361C136.449 169.232 135.577 170.146 134.749 171.102C128.042 178.877 124.347 189.224 126.281 197.276C127.315 201.589 129.17 205.668 131.838 209.152C135.747 209.067 139.444 209.152 142.801 210.427C144.394 210.257 146.03 210.15 147.73 210.15C153.785 210.15 159.266 211.276 163.409 213.231C165.023 213.996 166.489 214.909 167.658 215.95C167.658 214.824 167.828 213.613 168.168 212.721C166.277 210.937 165.087 208.769 165.087 206.305C165.087 202.885 167.36 200.059 170.653 198.019C170.653 197.042 170.845 196.107 171.185 195.215C169.039 193.367 167.658 191.072 167.658 188.395C167.658 186.717 168.21 185.187 169.145 183.806C168.21 182.447 167.658 180.917 167.658 179.239C167.658 178.41 167.785 177.645 168.019 176.902C165.958 175.075 164.662 172.823 164.662 170.231C164.662 167.66 165.937 165.429 167.976 163.623C166.723 162.646 165.385 161.817 163.961 161.18ZM187.628 161.669C182.105 161.669 177.112 162.837 173.691 164.558C170.25 166.279 168.635 168.404 168.635 170.231C168.635 172.079 170.25 174.203 173.691 175.924C177.112 177.645 182.105 178.814 187.628 178.814C190.029 178.814 192.302 178.58 194.406 178.198V174.586C197.359 174.14 199.802 173.332 201.374 172.291V176.031C204.03 175.266 206.579 172.44 206.643 170.231C206.643 168.404 205.028 166.279 201.586 164.558C198.145 162.837 193.173 161.669 187.628 161.669ZM208.13 176.052C207.429 176.795 206.6 177.496 205.666 178.134L205.708 184.295C208.385 182.702 209.638 180.853 209.638 179.239C209.638 178.219 209.15 177.114 208.13 176.052ZM171.631 179.324C171.694 181.151 173.309 183.211 176.687 184.911C180.129 186.653 185.1 187.8 190.645 187.8C194.108 187.8 197.359 187.333 200.142 186.568L200.291 180.789C196.636 182.064 192.302 182.765 187.628 182.765C181.573 182.765 176.071 181.554 171.907 179.472C171.801 179.43 171.716 179.366 171.631 179.324ZM172.056 186.717C171.758 187.291 171.631 187.864 171.631 188.395C171.631 190.244 173.245 192.368 176.687 194.089C180.129 195.81 185.1 196.957 190.645 196.957C193.45 196.957 196.105 196.681 198.506 196.15V191.051C196.041 191.518 193.407 191.752 190.645 191.752C184.569 191.752 179.067 190.562 174.902 188.459C173.861 187.949 172.905 187.354 172.056 186.717ZM209.214 186.717C207.918 187.63 206.792 188.31 205.474 188.884V193.622C208.3 191.986 209.638 190.074 209.638 188.395C209.638 187.864 209.511 187.291 209.214 186.717ZM210.807 194.535C210.382 194.96 209.915 195.364 209.405 195.767V202.651C211.593 201.164 212.655 199.528 212.655 198.041C212.655 196.915 212.039 195.704 210.807 194.535ZM174.669 197.51C174.647 197.701 174.626 197.871 174.626 198.041C174.626 199.889 176.241 201.992 179.683 203.713C183.124 205.455 188.117 206.602 193.641 206.602C196.806 206.602 199.823 206.22 202.436 205.583V199.23C198.973 200.335 194.958 200.93 190.645 200.93C184.569 200.93 179.067 199.719 174.902 197.637C174.817 197.594 174.754 197.552 174.669 197.51ZM171.779 202.056C169.931 203.437 169.06 204.945 169.06 206.305C169.06 208.153 170.675 210.257 174.116 211.999C177.558 213.72 182.529 214.867 188.074 214.867C190.093 214.867 192.047 214.718 193.874 214.442V210.575H193.641C187.565 210.575 182.062 209.364 177.898 207.261C175.242 205.944 173.033 204.181 171.779 202.056ZM206.303 208.557C204.625 209.152 202.797 209.641 200.843 209.959V212.53C201.247 212.36 201.65 212.19 202.033 211.999C204.115 210.937 205.517 209.747 206.303 208.557ZM208.257 212.424C207.45 213.231 206.515 213.953 205.474 214.612V220.688C208.3 219.073 209.638 217.161 209.638 215.483C209.638 214.506 209.192 213.443 208.257 212.424ZM134.175 213.019C132.008 213.04 129.671 213.316 127.249 213.89C122.403 215.016 118.237 217.076 115.518 219.35C112.798 221.602 111.736 223.896 112.055 225.532C112.373 227.168 114.052 228.676 117.324 229.547C120.585 230.397 125.146 230.44 129.99 229.314C131.945 228.846 133.772 228.251 135.45 227.55V223.153C138.552 221.772 140.868 220.114 141.909 218.5V223.684C144.479 221.474 145.478 219.265 145.18 217.65C144.883 216.014 143.183 214.506 139.912 213.656C138.276 213.231 136.321 212.997 134.175 213.019ZM147.9 214.123C148.473 214.952 148.877 215.887 149.089 216.928C149.323 218.202 149.217 219.435 148.835 220.646C150.938 221.198 152.85 221.942 154.507 222.876C155.442 223.386 156.313 224.002 157.078 224.64C158.99 224.194 160.604 223.556 161.752 222.791V227.168C165.172 225.553 166.744 223.577 166.744 222.005C166.744 220.412 165.172 218.436 161.73 216.821C158.31 215.228 153.381 214.145 147.9 214.123ZM171.652 215.186C171.631 215.271 171.631 215.377 171.631 215.483C171.631 217.331 173.245 219.435 176.687 221.177C180.129 222.898 185.1 224.045 190.645 224.045C193.45 224.045 196.105 223.747 198.506 223.237V217.523C195.362 218.372 191.814 218.84 188.074 218.84C181.998 218.84 176.496 217.629 172.332 215.547C172.098 215.419 171.864 215.292 171.652 215.186ZM172.247 223.11C171.822 223.811 171.631 224.491 171.631 225.15C171.631 226.998 173.245 229.101 176.687 230.843C180.129 232.564 185.1 233.711 190.645 233.711C193.45 233.711 196.105 233.414 198.506 232.904V227.295C196.041 227.763 193.407 228.018 190.645 228.018C184.569 228.018 179.067 226.807 174.902 224.703C173.946 224.236 173.054 223.705 172.247 223.11ZM209.022 223.11C207.79 223.939 206.707 224.597 205.474 225.128V230.355C208.3 228.74 209.638 226.828 209.638 225.15C209.638 224.491 209.447 223.811 209.022 223.11ZM146.859 224.257C146.115 225.192 145.244 226.084 144.267 226.892C140.953 229.675 136.279 231.927 130.882 233.18C128.957 233.626 127.045 233.903 125.21 234.051C125.89 235.177 127.086 236.282 128.836 237.259C131.732 238.895 135.981 240 140.698 240C142.843 240 144.883 239.766 146.752 239.363V234.944C149.684 234.497 152.149 233.69 153.721 232.649V236.558C155.845 235.071 156.865 233.393 156.865 231.799C156.865 229.951 155.484 227.975 152.574 226.339C151.002 225.468 149.047 224.746 146.859 224.257Z" fill="white"/>
</svg>
