<svg width="324" height="304" viewBox="0 0 324 304" fill="none" xmlns="http://www.w3.org/2000/svg">
<path d="M60.075 0V76.95H80.325V0H60.075ZM243.675 0V76.95H263.925V0H243.675ZM0 7.425V21.5595C14.1075 25.8795 29.565 30.5235 29.565 30.5235L0 30.8678V50.625H47.925V7.425H0ZM92.475 7.425V50.625H231.525V34.7827L213.368 28.2353L231.525 25.1708V7.425H92.475ZM276.075 7.425V50.625H324V7.425H276.075ZM38.475 89.1V117.788L64.1925 124.132L38.475 129.668V175.905L68.3775 173.745L38.475 193.32V240.57C60.21 247.32 80.595 262.71 100.643 276.48C103.005 278.1 105.368 279.653 107.73 281.205L124.605 264.33L118.193 287.888C133.448 297.135 148.23 303.75 162 303.75C181.035 303.75 201.892 291.195 223.357 276.48C243.405 262.71 263.79 247.32 285.525 240.57V231.188L240.435 219.645L285.525 211.14V89.1H196.223L162 111.915L127.778 89.1H38.475Z" fill="black"/>
<path d="M161.363 140.001C159.181 140.022 157.003 140.302 155.294 140.828C153.585 141.353 152.433 142.135 151.981 142.807C150.253 145.379 149.783 147.535 150.019 149.5C150.256 151.464 151.255 153.356 152.964 155.178C155.35 157.721 159.115 159.977 163.346 161.708C161.448 158.134 160.466 154.727 160.837 151.36C161.279 147.342 163.733 143.832 167.947 140.758C167.794 140.716 167.66 140.667 167.499 140.629C165.744 140.217 163.546 139.981 161.363 140.001ZM170.517 144.231C166.972 146.763 165.458 149.223 165.17 151.837C164.813 155.081 166.473 159.259 170.23 164.476L173.627 169.191C176.679 167.092 179.685 166.11 182.536 166.052C183.012 166.043 183.488 166.059 183.963 166.101C187.728 166.432 190.999 168.226 193.996 170.321L191.498 173.895C188.779 171.994 186.171 170.671 183.58 170.443C180.99 170.216 178.241 170.938 174.748 173.795L171.988 170.42C172.445 170.046 172.916 169.688 173.399 169.347L167.89 167.854C160.94 165.968 154.121 162.784 149.785 158.161C147.617 155.85 146.063 153.109 145.691 150.021C145.553 148.876 145.587 147.699 145.792 146.508C129.221 153.475 117.412 170.987 117.412 191.641C117.412 218.469 137.335 240 161.741 240C186.147 240 206.069 218.469 206.069 191.641C206.069 168.115 190.748 148.662 170.517 144.231L170.517 144.231ZM140.945 166.052C144.305 166.121 147.882 167.466 151.493 170.42L148.733 173.795C145.241 170.938 142.491 170.215 139.901 170.443C137.311 170.671 134.702 171.994 131.984 173.895L129.486 170.321C132.482 168.226 135.753 166.432 139.519 166.1C139.993 166.059 140.469 166.043 140.945 166.052ZM140.424 175.742C146.953 175.742 152.293 181.082 152.293 187.611C152.293 194.141 146.953 199.48 140.424 199.48C134.032 199.48 128.784 194.363 128.565 188.022C128.551 187.748 128.551 187.474 128.565 187.2C128.784 180.86 134.032 175.742 140.424 175.742ZM183.057 175.742C189.587 175.742 194.927 181.082 194.927 187.611C194.927 194.141 189.587 199.48 183.057 199.48C176.666 199.48 171.417 194.363 171.198 188.022C171.184 187.748 171.184 187.474 171.198 187.2C171.417 180.86 176.666 175.742 183.057 175.742ZM140.424 180.101C140.09 180.101 139.763 180.125 139.441 180.166C142.415 181.334 144.542 184.241 144.542 187.611C144.542 190.982 142.415 193.887 139.441 195.056C139.763 195.097 140.09 195.12 140.424 195.12C144.597 195.12 147.933 191.784 147.933 187.611C147.933 183.438 144.597 180.101 140.424 180.101ZM183.057 180.101C182.723 180.101 182.396 180.125 182.074 180.166C185.048 181.334 187.175 184.241 187.175 187.611C187.175 190.982 185.048 193.887 182.074 195.056C182.396 195.097 182.723 195.12 183.057 195.12C187.23 195.12 190.566 191.784 190.566 187.611C190.566 183.438 187.23 180.101 183.057 180.101ZM114.082 180.83C110.643 181.423 108.398 182.624 107.042 184.014C105.112 185.991 104.639 188.503 105.251 191.36C106.143 195.522 109.649 199.893 113.99 201.964C113.365 198.559 113.051 195.103 113.052 191.641C113.052 187.938 113.408 184.322 114.082 180.83ZM209.399 180.83C210.086 184.392 210.431 188.013 210.43 191.641C210.43 195.172 210.105 198.623 209.491 201.964C213.832 199.893 217.338 195.522 218.23 191.36C218.842 188.503 218.37 185.991 216.44 184.014C215.083 182.624 212.838 181.423 209.399 180.83ZM136.548 183.977C134.516 183.977 132.915 185.578 132.915 187.611C132.915 188.402 133.159 189.125 133.574 189.716L139.278 185.198C138.616 184.447 137.647 183.977 136.548 183.977ZM179.181 183.977C177.149 183.977 175.548 185.578 175.548 187.611C175.548 188.402 175.792 189.125 176.208 189.716L181.911 185.198C181.249 184.447 180.28 183.977 179.181 183.977ZM155.343 196.077C157.281 197.612 158.714 198.737 159.759 199.4C160.803 200.062 161.348 200.213 161.741 200.213C162.134 200.213 162.678 200.062 163.723 199.4C164.767 198.737 166.2 197.612 168.138 196.077L170.846 199.493C168.908 201.029 167.435 202.208 166.057 203.082C164.679 203.955 163.286 204.572 161.741 204.572C160.196 204.572 158.802 203.955 157.424 203.082C156.047 202.208 154.573 201.029 152.635 199.493L155.343 196.077ZM135.385 208.455H188.096L187.046 211.373C187.046 211.373 185.028 217.013 180.95 222.676C176.873 228.34 170.501 234.351 161.741 234.351C152.98 234.351 146.608 228.34 142.531 222.677C138.454 217.013 136.435 211.373 136.435 211.373L135.385 208.455ZM152.536 212.803V220.555H160.287V212.803H152.536Z" fill="white"/>
</svg>
