<svg width="324" height="304" viewBox="0 0 324 304" fill="none" xmlns="http://www.w3.org/2000/svg">
<path d="M60.075 0V76.95H80.325V0H60.075ZM243.675 0V76.95H263.925V0H243.675ZM0 7.425V21.5595C14.1075 25.8795 29.565 30.5235 29.565 30.5235L0 30.8678V50.625H47.925V7.425H0ZM92.475 7.425V50.625H231.525V34.7827L213.368 28.2353L231.525 25.1708V7.425H92.475ZM276.075 7.425V50.625H324V7.425H276.075ZM38.475 89.1V117.788L64.1925 124.132L38.475 129.668V175.905L68.3775 173.745L38.475 193.32V240.57C60.21 247.32 80.595 262.71 100.643 276.48C103.005 278.1 105.368 279.653 107.73 281.205L124.605 264.33L118.193 287.888C133.448 297.135 148.23 303.75 162 303.75C181.035 303.75 201.892 291.195 223.357 276.48C243.405 262.71 263.79 247.32 285.525 240.57V231.188L240.435 219.645L285.525 211.14V89.1H196.223L162 111.915L127.778 89.1H38.475Z" fill="black"/>
<path d="M196.993 140C192.429 145.661 186.28 150.986 178.865 155.266C170.94 159.84 162.69 162.511 155.094 163.467C155.535 164.774 156.024 166.086 156.562 167.4C160.012 167.46 162.89 167.307 164.407 167.077L166.448 166.747L168.265 166.471L168.313 168.666C168.276 169.996 168.198 171.341 168.077 172.7L180.279 174.606C180.464 174.585 180.648 174.573 180.831 174.572C183.242 174.547 185.451 176.143 186.104 178.579C186.245 179.106 186.302 179.635 186.286 180.154C187.573 179.707 188.818 179.227 190.009 178.706L192.077 177.804L192.575 180.006C193.326 183.305 193.874 186.769 194.165 190.363C201.19 186.806 207.686 182.038 212.979 175.959C212.285 168.045 209.498 159.143 204.548 150.572C204.39 150.298 204.231 150.028 204.07 149.758L198.131 165.138C199.242 165.302 200.312 165.818 201.168 166.673C203.282 168.787 203.282 172.209 201.168 174.323C199.053 176.437 195.625 176.437 193.511 174.323C191.602 172.414 191.423 169.436 192.966 167.32L201.356 145.589C199.966 143.611 198.509 141.747 196.993 140ZM117.915 158.983C116.092 162.727 114.519 166.784 113.35 171.145C110.309 182.483 110.341 193.487 112.744 202.054C115.61 201.492 118.442 201.2 121.215 201.185C121.615 201.183 122.01 201.19 122.406 201.198C126.901 201.302 131.237 202.132 135.329 203.676C135.097 201.272 134.972 198.812 134.972 196.303C134.972 190.312 135.648 184.585 136.912 179.293L137.444 177.05L139.525 178.033C145.874 181.046 153.789 183.081 162.427 183.468C163.533 179.147 164.191 174.896 164.454 170.808C156.869 171.849 148.209 171.404 139.37 169.037C131.103 166.823 123.787 163.266 117.915 158.983L117.915 158.983ZM167.605 176.7C167.274 178.953 166.826 181.232 166.265 183.528C169.686 183.487 173.007 183.185 176.178 182.673C175.95 182.276 175.769 181.849 175.645 181.387C175.332 180.216 175.43 179.033 175.848 177.987L167.605 176.7V176.7ZM129.37 176.794L130.266 180.721L125.612 181.778C127.498 182.893 128.49 185.161 127.895 187.38C127.18 190.051 124.438 191.638 121.767 190.923C119.097 190.207 117.509 187.459 118.225 184.788C118.37 184.245 118.603 183.749 118.898 183.306L114.36 184.336L113.471 180.411L129.37 176.795L129.37 176.794ZM213.107 181.71C207.606 187.197 201.189 191.503 194.38 194.747C194.391 195.264 194.4 195.782 194.4 196.303C194.4 198.283 194.324 200.232 194.178 202.148C197.763 202.434 201.083 201.782 203.949 200.128C209.536 196.904 212.7 190.281 213.107 181.71L213.107 181.71ZM140.09 182.357C139.222 186.665 138.726 191.259 138.71 196.06L138.737 195.987C145.324 198.179 152.231 199.773 159.262 200.593L160.878 200.781L161.033 202.397L162.259 215.354L158.245 215.731L157.7 209.966C156.72 210.37 155.604 210.471 154.501 210.175C151.83 209.46 150.243 206.718 150.959 204.047C151.02 203.819 151.098 203.599 151.188 203.387C146.978 202.584 142.841 201.536 138.818 200.256C139.397 210.949 142.299 220.521 146.595 227.549C151.415 235.433 157.829 240 164.689 240C171.55 240.001 177.964 235.434 182.784 227.549C186.994 220.662 189.862 211.335 190.521 200.903C187.122 201.906 183.648 202.746 180.124 203.415C180.536 204.399 180.644 205.522 180.346 206.633C179.63 209.304 176.889 210.891 174.218 210.175C174.061 210.133 173.91 210.083 173.76 210.028L173.222 215.732L169.215 215.354L170.441 202.398L170.596 200.782L172.211 200.593C178.513 199.859 184.709 198.499 190.669 196.647V196.304C190.669 191.655 190.18 187.204 189.363 182.997C182.408 185.689 174.211 187.273 165.424 187.273C156.031 187.273 147.326 185.407 140.09 182.357V182.357ZM121.235 205.192C118.893 205.214 116.496 205.455 114.043 205.906C116.779 212.719 121.18 217.341 126.757 218.835C130.399 219.809 134.277 219.381 138.138 217.704C137.193 214.71 136.441 211.539 135.909 208.229C131.359 206.155 126.441 205.143 121.235 205.191V205.192ZM150.865 222.478H179.053C170.416 232.088 159.094 231.71 150.865 222.478Z" fill="white"/>
</svg>
