<svg width="324" height="304" viewBox="0 0 324 304" fill="none" xmlns="http://www.w3.org/2000/svg">
<path d="M60.075 0V76.95H80.325V0H60.075ZM243.675 0V76.95H263.925V0H243.675ZM0 7.425V21.5595C14.1075 25.8795 29.565 30.5235 29.565 30.5235L0 30.8678V50.625H47.925V7.425H0ZM92.475 7.425V50.625H231.525V34.7827L213.368 28.2353L231.525 25.1708V7.425H92.475ZM276.075 7.425V50.625H324V7.425H276.075ZM38.475 89.1V117.788L64.1925 124.132L38.475 129.668V175.905L68.3775 173.745L38.475 193.32V240.57C60.21 247.32 80.595 262.71 100.643 276.48C103.005 278.1 105.368 279.653 107.73 281.205L124.605 264.33L118.193 287.888C133.448 297.135 148.23 303.75 162 303.75C181.035 303.75 201.892 291.195 223.357 276.48C243.405 262.71 263.79 247.32 285.525 240.57V231.188L240.435 219.645L285.525 211.14V89.1H196.223L162 111.915L127.778 89.1H38.475Z" fill="black"/>
<path d="M162.421 140C158.586 139.987 154.887 142.082 153.281 146.027V148.081L150.87 147.551C147.835 146.879 145.403 147.307 143.796 148.365C142.188 149.424 141.216 151.099 141.179 153.757C141.152 155.779 141.588 157.11 142.199 157.996C142.81 158.882 143.614 159.41 144.723 159.705C146.941 160.294 150.376 159.629 153.433 157.85L154.698 157.115L155.771 158.102C157.552 159.743 158.846 160.448 160.128 160.698C161.411 160.948 162.893 160.766 165.096 160.089L167.182 159.446L167.62 161.585C168.191 164.374 170.78 166.547 173.793 166.547C176.598 166.547 178.81 164.633 179.582 161.996L180.052 160.4L181.701 160.579C183.578 160.789 185.815 159.721 187 158.387L188.272 156.956L189.749 158.181C193.693 161.464 197.264 161.776 199.77 160.612C202.275 159.448 204.047 156.669 203.85 152.392C203.664 148.402 201.525 145.939 198.446 144.802C195.365 143.665 191.29 144.037 187.576 146.544L186 147.61L184.868 146.074C183.376 144.042 181.245 142.792 179.204 142.47C177.164 142.149 175.286 142.667 173.826 144.252L172.257 145.954L170.82 144.14C168.606 141.349 165.476 140.011 162.421 140ZM122.813 161.307C117.002 179.044 114.455 197.148 115.097 215.613C123.479 219.265 132.354 219.451 141.259 219.428C141.758 217.081 142.225 214.651 142.657 212.175C135.853 212.531 129.072 212.71 122.667 210.242C122.173 196.066 124.133 184.464 128.602 170.601C134.392 171.979 140.261 172.426 146.246 172.184C146.232 169.701 146.164 167.403 146.028 165.335C138.15 164.97 130.43 163.504 122.813 161.308V161.307ZM154.182 161.937C152.789 162.634 151.348 163.17 149.903 163.507C150.558 170.598 150.315 180.122 149.439 190.444C148.427 202.372 146.5 215.136 143.836 225.78H201.029C198.924 214.638 197.042 202.124 196.028 190.444C195.208 180.987 194.919 172.192 195.598 165.07C193.314 164.798 190.925 163.874 188.617 162.268C187.027 163.537 185.023 164.418 182.841 164.546C181.26 167.99 177.877 170.507 173.793 170.507C169.63 170.507 165.985 167.994 164.395 164.374C162.644 164.773 161.005 164.905 159.367 164.586C157.551 164.232 155.877 163.311 154.182 161.936L154.182 161.937ZM137.57 229.74L133.623 240H209.646L205.042 229.74H137.571H137.57Z" fill="white"/>
</svg>
