<svg width="324" height="304" viewBox="0 0 324 304" fill="none" xmlns="http://www.w3.org/2000/svg">
<path d="M60.075 0V76.95H80.325V0H60.075ZM243.675 0V76.95H263.925V0H243.675ZM0 7.425V21.5595C14.1075 25.8795 29.565 30.5235 29.565 30.5235L0 30.8678V50.625H47.925V7.425H0ZM92.475 7.425V50.625H231.525V34.7827L213.368 28.2353L231.525 25.1708V7.425H92.475ZM276.075 7.425V50.625H324V7.425H276.075ZM38.475 89.1V117.788L64.1925 124.132L38.475 129.668V175.905L68.3775 173.745L38.475 193.32V240.57C60.21 247.32 80.595 262.71 100.643 276.48C103.005 278.1 105.368 279.653 107.73 281.205L124.605 264.33L118.193 287.888C133.448 297.135 148.23 303.75 162 303.75C181.035 303.75 201.892 291.195 223.357 276.48C243.405 262.71 263.79 247.32 285.525 240.57V231.188L240.435 219.645L285.525 211.14V89.1H196.223L162 111.915L127.778 89.1H38.475Z" fill="black"/>
<path d="M117.37 140C116.471 140 115.6 140.31 115.007 140.838C114.411 141.366 114 142.078 114 143.37V173.7H128.559C128.424 171.386 128.311 169.072 128.199 166.96H120.74V143.37C120.74 142.078 120.329 141.366 119.734 140.838C119.14 140.31 118.269 140 117.37 140ZM207.237 140C206.339 140 205.463 140.31 204.878 140.838C204.272 141.366 203.867 142.078 203.867 143.37V166.96H197.06C197.195 169.095 197.352 171.409 197.509 173.7H210.608V143.37C210.608 142.078 210.203 141.366 209.596 140.838C209.012 140.31 208.136 140 207.237 140ZM132.086 163.455C132.49 171.701 133.119 182.125 133.546 192.797L133.951 192.393C136.444 189.966 139.455 187.225 143.162 187.113C145.072 187.068 146.734 187.854 148.037 188.843C149.34 189.831 150.374 191.045 151.385 192.168C153.362 194.437 155.024 196.1 156.597 196.19C158.147 196.279 159.877 194.954 162.034 193.067C164.169 191.157 166.707 188.708 170.347 188.843C174.413 189.023 176.952 192.213 179.176 194.662C180.3 195.875 181.333 196.953 182.299 197.627C183.243 198.302 183.984 198.549 184.838 198.459C186.411 198.257 189.399 195.65 191.533 192.752C192.769 191.09 193.757 189.45 194.386 188.349C193.847 179.339 193.241 170.757 192.769 163.455C172.324 164.579 152.126 164.332 132.086 163.455ZM143.297 191.157C141.971 191.202 139.006 193.112 136.781 195.291C135.501 196.527 134.422 197.74 133.748 198.594C133.861 202.278 133.928 205.963 133.951 209.557C134.265 209.288 134.557 209.018 134.872 208.749C137.86 206.165 141.499 203.267 145.611 203.671C147.476 203.873 148.914 204.997 149.902 206.21C150.891 207.401 151.587 208.771 152.239 210.007C152.913 211.265 153.542 212.388 154.126 213.107C154.71 213.804 155.114 214.051 155.654 214.073C156.373 214.118 156.957 213.849 157.81 213.062C158.664 212.253 159.563 210.973 160.529 209.602C161.495 208.232 162.506 206.749 163.809 205.536C165.045 204.39 166.707 203.469 168.662 203.491C168.774 203.491 168.909 203.491 169.044 203.514C171.201 203.716 172.863 205.042 173.964 206.524C175.087 208.007 175.829 209.692 176.57 211.287C177.312 212.86 178.031 214.343 178.749 215.309C179.468 216.275 180.008 216.634 180.794 216.702C181.827 216.792 183.378 216.297 185.04 215.242C186.703 214.163 188.455 212.613 190.005 211.018C192.791 208.142 194.836 205.311 195.24 204.749C195.105 201.559 194.948 198.346 194.791 195.156C192.409 198.346 189.466 201.986 185.332 202.458C183.265 202.705 181.423 201.964 179.963 200.93C178.502 199.919 177.334 198.616 176.188 197.38C173.942 194.909 171.987 192.954 170.167 192.887C168.617 192.82 166.865 194.19 164.708 196.077C162.573 197.987 160.012 200.436 156.373 200.234C152.598 200.031 150.306 197.088 148.329 194.842C147.363 193.718 146.42 192.707 145.588 192.056C144.735 191.404 144.061 191.135 143.297 191.157ZM168.415 207.558C167.808 207.558 167.291 207.827 166.55 208.501C165.719 209.288 164.798 210.546 163.854 211.916C162.888 213.287 161.877 214.77 160.574 216.005C159.271 217.219 157.496 218.252 155.384 218.117C153.519 217.982 152.036 216.904 151.025 215.713C150.037 214.523 149.34 213.152 148.666 211.916C148.015 210.658 147.386 209.512 146.779 208.771C146.173 208.03 145.746 207.76 145.206 207.715C143.656 207.535 140.219 209.445 137.545 211.804C136.085 213.085 134.827 214.365 133.951 215.286C133.906 221.06 133.681 226.475 133.209 231.215C158.102 229.126 176.368 235.147 195.038 240C195.734 231.53 195.779 221.442 195.465 210.995C194.701 211.894 193.847 212.86 192.904 213.826C191.219 215.579 189.286 217.308 187.22 218.634C185.13 219.96 182.883 220.948 180.435 220.746C178.278 220.544 176.615 219.218 175.514 217.735C174.391 216.253 173.65 214.568 172.908 212.972C172.167 211.4 171.448 209.917 170.729 208.951C170.01 207.985 169.471 207.625 168.684 207.558C168.594 207.558 168.505 207.535 168.415 207.558Z" fill="white"/>
</svg>
