<svg width="324" height="304" viewBox="0 0 324 304" fill="none" xmlns="http://www.w3.org/2000/svg">
<path d="M60.075 0V76.95H80.325V0H60.075ZM243.675 0V76.95H263.925V0H243.675ZM0 7.425V21.5595C14.1075 25.8795 29.565 30.5235 29.565 30.5235L0 30.8678V50.625H47.925V7.425H0ZM92.475 7.425V50.625H231.525V34.7827L213.368 28.2353L231.525 25.1708V7.425H92.475ZM276.075 7.425V50.625H324V7.425H276.075ZM38.475 89.1V117.788L64.1925 124.132L38.475 129.668V175.905L68.3775 173.745L38.475 193.32V240.57C60.21 247.32 80.595 262.71 100.643 276.48C103.005 278.1 105.368 279.653 107.73 281.205L124.605 264.33L118.193 287.888C133.448 297.135 148.23 303.75 162 303.75C181.035 303.75 201.892 291.195 223.357 276.48C243.405 262.71 263.79 247.32 285.525 240.57V231.188L240.435 219.645L285.525 211.14V89.1H196.223L162 111.915L127.778 89.1H38.475Z" fill="black"/>
<path d="M159.603 140C156.231 140.109 152.879 140.5 149.643 141.174V146.464H159.603V140ZM163.5 140V146.464H173.46V141.174C170.224 140.5 166.872 140.109 163.5 140ZM145.746 142.144C142.172 143.179 138.803 144.584 135.786 146.36V146.464H145.746V142.144ZM177.358 142.144V146.464H187.318V146.36C184.301 144.584 180.932 143.179 177.358 142.144ZM130.314 150.361C125.159 155.052 121.929 161.33 121.929 169.198V174.178H131.889V150.361H130.314ZM135.786 150.361V174.178H145.746V150.361H135.786ZM149.643 150.361V174.178H159.603V150.361H149.643ZM163.5 150.361V174.178H173.46V150.361H163.5ZM177.358 150.361V174.178H187.318V150.361H177.358ZM191.215 150.361V174.178H201.175V169.198C201.175 161.33 197.944 155.052 192.789 150.361H191.215ZM121.929 178.075V201.893H131.889V178.075H121.929ZM135.786 178.075V201.893H145.746V178.075H135.786ZM149.643 178.075V201.893H159.603V178.075H149.643ZM163.5 178.075V201.893H173.46V178.075H163.5ZM177.358 178.075V201.893H187.318V178.075H177.358ZM191.215 178.075V201.893H201.175V178.075H191.215ZM121.929 205.79V229.607H131.889V205.79H121.929ZM135.786 205.79V229.607H145.746V205.79H135.786ZM149.643 205.79V229.607H159.603V205.79H149.643ZM163.5 205.79V229.607H173.46V205.79H163.5ZM177.358 205.79V229.607H187.318V205.79H177.358ZM191.215 205.79V229.607H201.175V205.79H191.215ZM115 233.504V240H208.103V233.504H115Z" fill="white"/>
</svg>
