<svg width="324" height="304" viewBox="0 0 324 304" fill="none" xmlns="http://www.w3.org/2000/svg">
<path d="M60.075 0V76.95H80.325V0H60.075ZM243.675 0V76.95H263.925V0H243.675ZM0 7.425V21.5595C14.1075 25.8795 29.565 30.5235 29.565 30.5235L0 30.8678V50.625H47.925V7.425H0ZM92.475 7.425V50.625H231.525V34.7827L213.368 28.2353L231.525 25.1708V7.425H92.475ZM276.075 7.425V50.625H324V7.425H276.075ZM38.475 89.1V117.788L64.1925 124.132L38.475 129.668V175.905L68.3775 173.745L38.475 193.32V240.57C60.21 247.32 80.595 262.71 100.643 276.48C103.005 278.1 105.368 279.653 107.73 281.205L124.605 264.33L118.193 287.888C133.448 297.135 148.23 303.75 162 303.75C181.035 303.75 201.892 291.195 223.357 276.48C243.405 262.71 263.79 247.32 285.525 240.57V231.188L240.435 219.645L285.525 211.14V89.1H196.223L162 111.915L127.778 89.1H38.475Z" fill="black"/>
<path d="M143.961 140.005C142.854 140.04 141.748 140.354 140.801 140.89C137.915 142.525 135.955 145.57 133.56 150.054C131.166 154.538 128.49 160.57 125.173 168.318C118.539 183.812 109.368 206.158 95.2808 236.046C95.1203 236.373 95.0265 236.729 95.0049 237.092C94.9832 237.456 95.0341 237.82 95.1546 238.163C95.275 238.507 95.4627 238.823 95.7066 239.094C95.9505 239.364 96.2458 239.583 96.5752 239.738C96.9047 239.894 97.2617 239.982 97.6255 239.997C97.9893 240.013 98.3526 239.956 98.6943 239.83C99.0359 239.704 99.3491 239.512 99.6155 239.263C99.8819 239.015 100.096 238.716 100.246 238.385C114.392 208.373 123.617 185.897 130.219 170.475C133.521 162.764 136.171 156.817 138.399 152.644C140.628 148.471 142.588 146.182 143.5 145.666C143.956 145.408 144.012 145.428 144.303 145.504C144.595 145.579 145.209 145.893 146.037 146.704C147.693 148.326 149.985 151.74 152.772 156.653C158.283 166.371 165.987 181.961 177.987 202.597C176.726 205.664 175.365 208.921 173.87 212.384C173.717 212.716 173.632 213.076 173.62 213.442C173.607 213.807 173.669 214.172 173.799 214.514C173.93 214.856 174.128 215.168 174.382 215.432C174.635 215.697 174.939 215.907 175.275 216.053C175.611 216.198 175.972 216.274 176.338 216.277C176.704 216.281 177.067 216.21 177.406 216.071C177.745 215.932 178.052 215.727 178.31 215.467C178.568 215.207 178.771 214.899 178.908 214.559C184.708 201.118 188.637 190.549 191.674 183.8C193.192 180.426 194.528 178.005 195.493 176.839C195.911 176.335 196.202 176.127 196.324 176.054C196.512 176.158 197.747 177.177 199.194 179.656C200.686 182.21 202.487 186.069 204.639 191.212C208.941 201.498 214.688 216.955 222.93 238.203C223.058 238.543 223.252 238.854 223.5 239.118C223.749 239.382 224.048 239.594 224.379 239.742C224.71 239.89 225.067 239.971 225.43 239.98C225.793 239.989 226.154 239.926 226.492 239.795C226.83 239.664 227.139 239.467 227.401 239.215C227.662 238.964 227.872 238.663 228.016 238.331C228.161 237.998 228.238 237.64 228.244 237.277C228.249 236.914 228.183 236.554 228.048 236.217C219.821 215.003 214.089 199.575 209.703 189.09C207.511 183.848 205.661 179.85 203.934 176.893C202.208 173.936 200.73 171.827 198.22 170.871C197.592 170.633 196.892 170.529 196.197 170.547C195.503 170.565 194.817 170.706 194.211 170.971C193 171.5 192.086 172.349 191.268 173.336C189.632 175.311 188.258 178.001 186.664 181.543C184.918 185.424 182.956 190.35 180.606 196.168C169.904 177.511 162.874 163.335 157.549 153.944C154.681 148.888 152.36 145.22 149.874 142.785C148.632 141.568 147.296 140.604 145.677 140.185C145.271 140.08 144.851 140.022 144.431 140.005C144.273 139.998 144.119 139.999 143.961 140.005L143.961 140.005ZM145.414 214.767C133.874 214.767 124.523 226.042 124.523 239.955H166.305C166.305 226.042 156.954 214.767 145.414 214.767L145.414 214.767Z" fill="white"/>
</svg>
