<svg width="324" height="304" viewBox="0 0 324 304" fill="none" xmlns="http://www.w3.org/2000/svg">
<path d="M60.075 0V76.95H80.325V0H60.075ZM243.675 0V76.95H263.925V0H243.675ZM0 7.425V21.5595C14.1075 25.8795 29.565 30.5235 29.565 30.5235L0 30.8678V50.625H47.925V7.425H0ZM92.475 7.425V50.625H231.525V34.7827L213.368 28.2353L231.525 25.1708V7.425H92.475ZM276.075 7.425V50.625H324V7.425H276.075ZM38.475 89.1V117.788L64.1925 124.132L38.475 129.668V175.905L68.3775 173.745L38.475 193.32V240.57C60.21 247.32 80.595 262.71 100.643 276.48C103.005 278.1 105.368 279.653 107.73 281.205L124.605 264.33L118.193 287.888C133.448 297.135 148.23 303.75 162 303.75C181.035 303.75 201.892 291.195 223.357 276.48C243.405 262.71 263.79 247.32 285.525 240.57V231.188L240.435 219.645L285.525 211.14V89.1H196.223L162 111.915L127.778 89.1H38.475Z" fill="black"/>
<path d="M149.806 140L154.138 145.848L172.215 157.483L174.938 153.164L156.839 141.505L149.806 140ZM173.244 140.026L166.232 141.527L165.117 142.243L169.513 145.067L173.244 140.026ZM153.28 149.871L148.133 153.182L150.857 157.505L157.997 152.909L153.28 149.871ZM180.578 151.46L173.094 163.38L176.911 165.847L184.395 153.93L180.578 151.46ZM142.493 151.481L138.676 153.951L146.16 165.868L149.977 163.402L142.493 151.481ZM185.274 159.821L182.551 164.152L188.877 168.227L191.6 163.895L185.274 159.821ZM137.797 159.842L131.471 163.917L134.195 168.248L140.521 164.174L137.797 159.842ZM114.893 175.239L112.748 181.672H145.131L142.987 175.239H114.893ZM180.085 175.239L177.94 181.672H210.321L208.177 175.239H180.085ZM115.431 185.532V191.965H142.451V185.532H115.431ZM180.621 185.532V191.965H207.64V185.532H180.621ZM112 195.825V240H149.549L152.744 214.396C152.808 209.742 157.161 207.405 161.536 207.405C165.91 207.405 170.263 209.742 170.328 214.396L173.523 240H211.071V195.825H112ZM170.328 214.396L170.306 214.246L170.328 214.482V214.396ZM152.744 214.396V214.482L152.765 214.246L152.744 214.396ZM130.656 201.229L132.115 202.923C134.237 205.411 136.275 206.569 137.754 207.148C139.212 207.705 139.942 207.684 139.942 207.684H141.872V209.614C141.872 212.573 140.649 217.141 138.826 221.408C137.904 223.552 136.832 225.547 135.588 227.155C134.323 228.742 132.779 230.136 130.656 230.136C128.533 230.136 126.985 228.742 125.728 227.155C124.47 225.547 123.408 223.552 122.495 221.408C120.668 217.141 119.441 212.573 119.441 209.614V207.684H121.371C121.371 207.684 122.098 207.705 123.567 207.148C125.038 206.569 127.071 205.411 129.198 202.923L130.656 201.229ZM192.415 201.229L193.873 202.923C195.996 205.411 198.033 206.569 199.513 207.148C200.971 207.705 201.7 207.684 201.7 207.684H203.63V209.614C203.63 212.573 202.408 217.141 200.585 221.408C199.663 223.552 198.591 225.547 197.347 227.155C196.082 228.742 194.538 230.136 192.415 230.136C190.292 230.136 188.748 228.742 187.483 227.155C186.239 225.547 185.167 223.552 184.245 221.408C182.422 217.141 181.2 212.573 181.2 209.614V207.684H183.13C183.13 207.684 183.859 207.705 185.317 207.148C186.797 206.569 188.834 205.411 190.957 202.923L192.415 201.229ZM130.656 206.955C128.598 208.928 126.593 210.107 124.969 210.729C124.431 210.943 123.931 211.093 123.477 211.201C123.835 213.431 124.761 216.905 126.042 219.885C126.869 221.837 127.836 223.595 128.748 224.753C129.67 225.933 130.463 226.276 130.656 226.276C130.849 226.276 131.643 225.933 132.565 224.753C133.465 223.595 134.452 221.837 135.267 219.885C136.553 216.905 137.476 213.431 137.84 211.201C137.39 211.093 136.875 210.943 136.339 210.729C134.731 210.107 132.715 208.928 130.656 206.955ZM192.415 206.955C190.357 208.928 188.341 210.107 186.732 210.729C186.196 210.943 185.682 211.093 185.231 211.201C185.596 213.431 186.518 216.905 187.805 219.885C188.62 221.837 189.606 223.595 190.507 224.753C191.429 225.933 192.222 226.276 192.415 226.276C192.608 226.276 193.402 225.933 194.324 224.753C195.224 223.595 196.211 221.837 197.026 219.885C198.312 216.905 199.234 213.431 199.599 211.201C199.149 211.093 198.634 210.943 198.098 210.729C196.49 210.107 194.474 208.928 192.415 206.955Z" fill="white"/>
</svg>
