<svg width="324" height="304" viewBox="0 0 324 304" fill="none" xmlns="http://www.w3.org/2000/svg">
<path d="M60.075 0V76.95H80.325V0H60.075ZM243.675 0V76.95H263.925V0H243.675ZM0 7.425V21.5595C14.1075 25.8795 29.565 30.5235 29.565 30.5235L0 30.8678V50.625H47.925V7.425H0ZM92.475 7.425V50.625H231.525V34.7827L213.368 28.2353L231.525 25.1708V7.425H92.475ZM276.075 7.425V50.625H324V7.425H276.075ZM38.475 89.1V117.787L64.1925 124.132L38.475 129.668V175.905L68.3775 173.745L38.475 193.32V240.57C60.21 247.32 80.595 262.71 100.643 276.48C103.005 278.1 105.368 279.652 107.73 281.205L124.605 264.33L118.193 287.888C133.448 297.135 148.23 303.75 162 303.75C181.035 303.75 201.893 291.195 223.357 276.48C243.405 262.71 263.79 247.32 285.525 240.57V231.188L240.435 219.645L285.525 211.14V89.1H196.223L162 111.915L127.778 89.1H38.475Z" fill="black"/>
<path d="M121.901 140.001C121.832 140 121.763 140 121.694 140.002C120.837 140.031 119.985 140.347 119.293 140.959C117.71 142.357 117.56 144.774 118.958 146.357C119.885 147.406 121.258 147.821 122.54 147.578L134.736 161.384L124.114 170.767L129.214 176.541C131.258 172.035 133.907 168.215 137.106 165.017L138.563 172.648C143.854 171.321 149.071 170.42 154.244 169.933L149.202 164.225L141.05 161.593C144.659 158.873 148.796 156.75 153.411 155.167L148.31 149.393L137.689 158.775L125.476 144.949C125.853 143.719 125.606 142.328 124.692 141.293C123.954 140.458 122.933 140.021 121.901 140.001L121.901 140.001ZM202.955 140.001C201.923 140.022 200.902 140.458 200.165 141.293C199.25 142.328 199.002 143.719 199.38 144.95L187.167 158.776L176.546 149.393L171.446 155.167C176.06 156.75 180.196 158.873 183.806 161.593L175.654 164.225L170.751 169.776C175.961 170.169 181.16 170.979 186.379 172.192L187.75 165.017C190.949 168.215 193.599 172.035 195.642 176.54L200.742 170.767L190.12 161.384L202.316 147.578C203.598 147.821 204.971 147.406 205.898 146.357C207.296 144.774 207.146 142.357 205.564 140.958C204.871 140.347 204.019 140.031 203.162 140.002C203.093 140 203.024 139.999 202.955 140.001V140.001ZM163.646 173.425C155.304 173.404 146.889 174.526 138.209 176.818C137.777 195.89 145.48 220.962 163.189 231.622C180.331 221.262 188.999 195.796 188.609 176.816C180.227 174.603 171.97 173.445 163.645 173.425H163.646ZM138.938 205.792L120.621 226.527L118.049 240L131.101 235.784L145.543 219.435C142.831 215.195 140.641 210.572 138.938 205.792ZM187.057 207.08C185.224 211.769 182.929 216.281 180.16 220.394L193.755 235.784L206.807 240L204.235 226.527L187.057 207.08L187.057 207.08Z" fill="white"/>
</svg>
