<svg width="324" height="304" viewBox="0 0 324 304" fill="none" xmlns="http://www.w3.org/2000/svg">
<path d="M60.075 0V76.95H80.325V0H60.075ZM243.675 0V76.95H263.925V0H243.675ZM0 7.425V21.5595C14.1075 25.8795 29.565 30.5235 29.565 30.5235L0 30.8678V50.625H47.925V7.425H0ZM92.475 7.425V50.625H231.525V34.7827L213.368 28.2353L231.525 25.1708V7.425H92.475ZM276.075 7.425V50.625H324V7.425H276.075ZM38.475 89.1V117.788L64.1925 124.132L38.475 129.668V175.905L68.3775 173.745L38.475 193.32V240.57C60.21 247.32 80.595 262.71 100.643 276.48C103.005 278.1 105.368 279.653 107.73 281.205L124.605 264.33L118.193 287.888C133.448 297.135 148.23 303.75 162 303.75C181.035 303.75 201.892 291.195 223.357 276.48C243.405 262.71 263.79 247.32 285.525 240.57V231.188L240.435 219.645L285.525 211.14V89.1H196.223L162 111.915L127.778 89.1H38.475Z" fill="black"/>
<path d="M140.387 140V239.696H158.471V140H140.387ZM107 151.129V195.181H117.665V151.129H107ZM143.632 156.461H147.806V230.654H143.632V156.461ZM173.478 158.244L162.98 160.128L177.314 240L187.812 238.116L173.478 158.244ZM121.838 162.258V224.858H136.213V162.258H121.838ZM187.105 168.907L180.707 171.637L181.981 174.622L188.379 171.893L187.105 168.907ZM190.017 175.731L183.619 178.461L184.893 181.446L191.29 178.717L190.017 175.731H190.017ZM192.928 182.556L186.53 185.284L209.64 239.451L216.038 236.722L192.928 182.556H192.928ZM107 199.354V206.309H117.665V199.354H107ZM151.052 200.977H155.225V230.654H151.052V200.977ZM107 210.483V239.696H117.665V210.483H107ZM121.838 229.031V239.696H136.213V229.031H121.838Z" fill="white"/>
</svg>
