<svg width="324" height="304" viewBox="0 0 324 304" fill="none" xmlns="http://www.w3.org/2000/svg">
<path d="M60.075 0V76.95H80.325V0H60.075ZM243.675 0V76.95H263.925V0H243.675ZM0 7.425V21.5595C14.1075 25.8795 29.565 30.5235 29.565 30.5235L0 30.8678V50.625H47.925V7.425H0ZM92.475 7.425V50.625H231.525V34.7827L213.368 28.2353L231.525 25.1708V7.425H92.475ZM276.075 7.425V50.625H324V7.425H276.075ZM38.475 89.1V117.787L64.1925 124.132L38.475 129.668V175.905L68.3775 173.745L38.475 193.32V240.57C60.21 247.32 80.595 262.71 100.643 276.48C103.005 278.1 105.368 279.652 107.73 281.205L124.605 264.33L118.193 287.888C133.448 297.135 148.23 303.75 162 303.75C181.035 303.75 201.893 291.195 223.357 276.48C243.405 262.71 263.79 247.32 285.525 240.57V231.188L240.435 219.645L285.525 211.14V89.1H196.223L162 111.915L127.778 89.1H38.475Z" fill="black"/>
<path d="M154.031 140V153.026L141.488 157.547L142.907 161.475L154.032 157.463V178.966L134.542 186.534L136.052 190.426L154.032 183.445V215.192H140.245L139.923 213.494L138.875 207.89H125.807V176.031L139.259 171.182L137.84 167.247L125.806 171.587V152.928H121.628V173.096L110 177.289L111.419 181.216L121.628 177.533V207.89H110.293C111.538 220.054 116.404 232.058 125.227 240H188.363C190.497 228.474 197.27 218.724 204.841 209.49H204.827L214.982 202.271L212.564 198.861L197.609 209.489H186.505V184.452L200.411 179.434L199 175.507L186.505 180.014V165.025H182.326V181.523L171.159 185.548L172.571 189.476L182.326 185.954V213.145L181.229 214.451L180.6 215.192H158.211V181.824L177.7 174.256L176.184 170.364L158.21 177.344V155.961L170.747 151.44L169.328 147.506L158.21 151.517V140H154.031V140Z" fill="white"/>
</svg>
