<svg width="324" height="304" viewBox="0 0 324 304" fill="none" xmlns="http://www.w3.org/2000/svg">
<path d="M60.075 0V76.95H80.325V0H60.075ZM243.675 0V76.95H263.925V0H243.675ZM0 7.425V21.5595C14.1075 25.8795 29.565 30.5235 29.565 30.5235L0 30.8678V50.625H47.925V7.425H0ZM92.475 7.425V50.625H231.525V34.7827L213.368 28.2353L231.525 25.1708V7.425H92.475ZM276.075 7.425V50.625H324V7.425H276.075ZM38.475 89.1V117.788L64.1925 124.132L38.475 129.668V175.905L68.3775 173.745L38.475 193.32V240.57C60.21 247.32 80.595 262.71 100.643 276.48C103.005 278.1 105.368 279.653 107.73 281.205L124.605 264.33L118.193 287.888C133.448 297.135 148.23 303.75 162 303.75C181.035 303.75 201.892 291.195 223.357 276.48C243.405 262.71 263.79 247.32 285.525 240.57V231.188L240.435 219.645L285.525 211.14V89.1H196.223L162 111.915L127.778 89.1H38.475Z" fill="black"/>
<path d="M161.658 140L117.387 163.611H205.929L161.658 140ZM121.944 167.517V170.556H201.372V167.517H121.944ZM125.417 174.462V219.167H131.927V174.462H125.417ZM147.408 174.462V219.167H153.918V174.462H147.408ZM169.398 174.462V219.167H175.908V174.462H169.398ZM191.389 174.462V219.167H197.899V174.462H191.389ZM121.944 223.073V229.583H201.372V223.073H121.944ZM115 233.49V240H208.316V233.49H115Z" fill="white"/>
</svg>
